<?xml version="1.0" encoding="utf-8"?>
<!-- Generator: Adobe Illustrator 19.2.1, SVG Export Plug-In . SVG Version: 6.00 Build 0)  -->
<svg version="1.0" id="Layer_1" xmlns="http://www.w3.org/2000/svg" xmlns:xlink="http://www.w3.org/1999/xlink" x="0px" y="0px"
	 width="1400px" height="980px" viewBox="0 0 1400 980" style="enable-background:new 0 0 1400 980;" xml:space="preserve">
<style type="text/css">
	.st0{fill:#F7F2E8;}
	.st1{fill:#EAD9B9;}
	.st2{fill:#BDA88F;}
	.st3{fill:#202552;}
	.st4{fill:#73B1C8;}
	.st5{fill:#A8AD79;}
	.st6{fill:#C4C69D;}
	.st7{fill:#94965F;}
	.st8{fill:#E6E6E8;}
	.st9{fill:#F2F2F7;}
	.st10{fill:#87878E;}
	.st11{fill:#B8BF8E;}
	.st12{fill:#CACACB;}
	.st13{fill:#8F919B;}
	.st14{fill:#FFFFFF;}
	.st15{fill:#D4EEF8;}
	.st16{fill:#F8FCFF;}
	.st17{fill:#B3E2EC;}
	.st18{fill:#93D0D8;}
	.st19{fill:#F16364;}
	.st20{fill:#DD3850;}
	.st21{fill:#F7F7F5;}
	.st22{fill:#B7DFF7;}
	.st23{fill:#FFD28E;}
	.st24{fill:#E9985D;}
	.st25{fill:#5795B7;}
	.st26{fill:#A9D7E5;}
	.st27{fill:#FFE3BD;}
	.st28{fill:#FBDB80;}
	.st29{fill:#F9E381;}
</style>
<g>
	<rect class="st0" width="1400" height="980"/>
	<g>
		<g>
			<g>
				<path class="st1" d="M1176.5,548.9v-1.6c0-15.9-12.9-28.8-28.8-28.8H747.2c-15.9,0-28.8-12.9-28.8-28.8v-0.9
					c0-15.9,12.9-28.8,28.8-28.8h165.4c15.9,0,28.8-12.9,28.8-28.8v-1.6c0-15.9-12.9-28.8-28.8-28.8H834
					c-15.9,0-28.8-12.9-28.8-28.8v-0.3c0-15.9,12.9-28.8,28.8-28.8h120.4c15.9,0,28.8-12.9,28.8-28.8v-1.6
					c0-15.9-12.9-28.8-28.8-28.8H498.3c-15.9,0-28.8,12.9-28.8,28.8v1.6c0,15.9,12.9,28.8,28.8,28.8h121.4
					c15.9,0,28.8,12.9,28.8,28.8v0.3c0,15.9-12.9,28.8-28.8,28.8H356.3c-15.9,0-28.8,12.9-28.8,28.8v1.6c0,15.9,12.9,28.8,28.8,28.8
					h188.3c15.9,0,28.8,12.9,28.8,28.8v0.9c0,15.9-12.9,28.8-28.8,28.8h-52.3c-15.9,0-28.8,12.9-28.8,28.8v1.6
					c0,15.9,12.9,28.8,28.8,28.8H598c15.9,0,28.8,12.9,28.8,28.8v1.1c0,15.9-12.9,28.8-28.8,28.8H438.9c-15.9,0-28.8,12.9-28.8,28.8
					v1.6c0,15.9,12.9,28.8,28.8,28.8h36.3c15.9,0,28.8,12.9,28.8,28.8v0c0,15.9-12.9,28.8-28.8,28.8H259.6
					c-15.9,0-28.8,12.9-28.8,28.8v1.6c0,15.9,12.9,28.8,28.8,28.8H1005c15.9,0,28.8-12.9,28.8-28.8V782c0-15.9-12.9-28.8-28.8-28.8
					H741.9c-15.9,0-28.8-12.9-28.8-28.8v0c0-15.9,12.9-28.8,28.8-28.8h212.5c15.9,0,28.8-12.9,28.8-28.8v-1.6
					c0-15.9-12.9-28.8-28.8-28.8h-104c-15.9,0-28.8-12.9-28.8-28.8v-1.1c0-15.9,12.9-28.8,28.8-28.8h297.3
					C1163.6,577.7,1176.5,564.8,1176.5,548.9z"/>
			</g>
			<path class="st1" d="M259.5,401.7h-28.1c-16,0-29,13-29,29v0c0,16,13,29,29,29h28.1c16,0,29-13,29-29v0
				C288.5,414.7,275.5,401.7,259.5,401.7z"/>
		</g>
	</g>
	<path class="st2" d="M1292.2,594c0-0.2,0-0.4,0-0.6c0-0.3,0-0.5-0.1-0.8c0-0.2,0-0.3-0.1-0.5c0,0,0,0,0,0
		c-0.9-5.2-5.2-9.3-10.6-9.9c-4.3-0.4-8.3,1.4-10.7,4.5c0.1-2.1,0.1-4.2,0.1-6.4c0-15-1.9-29.6-5.3-43.5c2.1,1.8,4.9,2.8,7.7,2.8
		c1.2,0,2.5-0.2,3.7-0.6c3.1-1,5.6-3.1,7-6c1.2-2.3,1.6-4.8,1.2-7.3c0-0.2-0.1-0.3-0.1-0.5c0-0.1-0.1-0.3-0.1-0.4
		c-0.1-0.3-0.2-0.7-0.3-1l-3.7-11.4c-0.1-0.3-0.2-0.7-0.4-1c-0.1-0.1-0.1-0.2-0.2-0.4c-0.1-0.2-0.2-0.4-0.3-0.6
		c-0.1-0.2-0.3-0.5-0.4-0.7c-0.1-0.1-0.2-0.3-0.2-0.4c0,0,0,0,0,0c-2.9-4.3-8.5-6.4-13.7-4.7c-4.1,1.3-7,4.6-8,8.5
		c-6.4-15.7-14.9-30.4-25.2-43.5c0.9,0.3,1.8,0.4,2.7,0.5c0.2,0,0.4,0,0.6,0c3,0,5.8-1.1,8.1-3.1c2.4-2.2,3.8-5.1,4-8.3
		c0.1-2.6-0.6-5.1-2-7.3c0-0.1-0.1-0.1-0.1-0.2c-0.3-0.4-0.6-0.8-1-1.2l-8-8.9c-0.4-0.4-0.7-0.7-1.1-1.1c-0.1-0.1-0.2-0.1-0.2-0.2
		c-0.4-0.3-0.8-0.6-1.2-0.9c0,0,0,0-0.1,0c0,0,0,0,0,0c-4.5-2.8-10.4-2.4-14.4,1.3c-3.2,2.9-4.5,7.2-3.8,11.2
		c-12.1-11.7-25.7-21.7-40.7-29.6c4-0.6,7.6-3.1,9.3-7c2.2-5,0.8-10.8-3.2-14.1c0,0,0,0,0,0c-0.1-0.1-0.3-0.2-0.4-0.3
		c-0.2-0.2-0.4-0.3-0.6-0.4c-0.2-0.1-0.4-0.2-0.6-0.4c-0.1-0.1-0.2-0.1-0.3-0.2c-0.3-0.2-0.6-0.3-0.9-0.5l-10.9-4.9
		c-0.3-0.1-0.7-0.3-1-0.4c-0.1,0-0.3-0.1-0.4-0.1c-0.2-0.1-0.4-0.1-0.6-0.2c-0.3-0.1-0.5-0.1-0.8-0.2c-0.2,0-0.3-0.1-0.5-0.1
		c0,0,0,0,0,0c-5.2-0.7-10.4,2-12.7,7c-1.3,2.9-1.4,6.2-0.2,9.2c0.3,0.8,0.7,1.6,1.2,2.3c-15.5-5.7-32-9.2-49.1-10.4
		c3.4-2.1,5.6-5.9,5.6-10.2c0-5.5-3.7-10.1-8.7-11.6c0,0,0,0,0,0c-0.2,0-0.3-0.1-0.5-0.1c-0.3-0.1-0.5-0.1-0.8-0.2
		c-0.2,0-0.4-0.1-0.6-0.1c-0.1,0-0.3,0-0.4,0c-0.4,0-0.7-0.1-1.1-0.1h-11.9c-0.4,0-0.7,0-1.1,0.1c-0.1,0-0.3,0-0.4,0
		c-0.2,0-0.4,0.1-0.6,0.1c-0.3,0-0.5,0.1-0.8,0.2c-0.2,0-0.3,0.1-0.5,0.1c0,0,0,0,0,0c-5,1.5-8.7,6.1-8.7,11.6
		c0,4.3,2.3,8.1,5.6,10.2c-17.1,1.2-33.6,4.8-49.1,10.4c0.5-0.7,0.9-1.5,1.2-2.3c1.2-3,1.1-6.3-0.2-9.2c-2.2-5-7.5-7.8-12.7-7
		c0,0,0,0,0,0c-0.2,0-0.3,0.1-0.5,0.1c-0.2,0-0.5,0.1-0.7,0.2c-0.2,0.1-0.4,0.1-0.6,0.2c-0.1,0-0.3,0.1-0.4,0.1
		c-0.3,0.1-0.7,0.2-1,0.4c0,0,0,0,0,0c0,0,0,0,0,0l-10.9,4.9c-0.3,0.1-0.6,0.3-1,0.5c-0.1,0.1-0.2,0.1-0.3,0.2
		c-0.2,0.1-0.4,0.2-0.6,0.4c-0.2,0.1-0.4,0.3-0.6,0.4c-0.1,0.1-0.3,0.2-0.4,0.3c0,0,0,0,0,0c-4,3.4-5.5,9.1-3.2,14.1
		c1.7,3.9,5.4,6.5,9.3,7c-14.9,8-28.6,18-40.7,29.6c0.7-4-0.6-8.3-3.8-11.2c-4.1-3.7-10-4-14.4-1.3c0,0,0,0,0,0c0,0,0,0-0.1,0
		c-0.4,0.3-0.8,0.5-1.2,0.9c-0.1,0.1-0.2,0.1-0.2,0.2c-0.4,0.3-0.8,0.7-1.1,1.1l-8,8.9c-0.4,0.4-0.7,0.8-1,1.2
		c0,0.1-0.1,0.1-0.1,0.2c-1.4,2.1-2.1,4.7-2,7.3c0.2,3.2,1.6,6.2,4,8.3c2.2,2,5.1,3.1,8.1,3.1c0.2,0,0.4,0,0.6,0
		c0.9,0,1.9-0.2,2.7-0.5c-10.3,13.2-18.8,27.8-25.2,43.5c-1-3.9-3.9-7.2-8-8.5c-5.2-1.7-10.8,0.4-13.7,4.7c0,0,0,0,0,0
		c-0.1,0.1-0.2,0.3-0.2,0.4c-0.1,0.2-0.3,0.5-0.4,0.7c-0.1,0.2-0.2,0.4-0.3,0.6c-0.1,0.1-0.1,0.2-0.2,0.4c-0.1,0.3-0.3,0.7-0.4,1
		l-3.7,11.4c-0.1,0.3-0.2,0.7-0.3,1c0,0.1-0.1,0.3-0.1,0.4c0,0.2-0.1,0.3-0.1,0.5c-0.4,2.5,0,5,1.2,7.3c1.5,2.9,4,5,7,6
		c1.2,0.4,2.5,0.6,3.7,0.6c2.8,0,5.5-1,7.7-2.8c-3.5,13.9-5.3,28.5-5.3,43.5c0,2.1,0.1,4.3,0.1,6.4c-2.5-3.1-6.5-5-10.7-4.5
		c-5.5,0.6-9.7,4.7-10.6,9.9c0,0,0,0,0,0c0,0.2,0,0.3-0.1,0.5c0,0.3-0.1,0.5-0.1,0.8c0,0.2,0,0.4,0,0.6c0,0.1,0,0.3,0,0.4
		c0,0.4,0,0.7,0.1,1.1l1.2,11.9c0,0.3,0.1,0.7,0.2,1c0,0.1,0.1,0.3,0.1,0.4c0,0.2,0.1,0.3,0.1,0.5c0,0.2,0.1,0.4,0.2,0.5
		c0,0.1,0.1,0.2,0.1,0.3c1.7,4.8,6.2,8.1,11.4,8.1c0.4,0,0.8,0,1.3-0.1c4.3-0.4,7.8-3.1,9.5-6.6c3,16.8,8.3,32.9,15.6,47.7
		c-3.6-1.9-8-1.9-11.7,0.2c-4.8,2.7-6.9,8.3-5.7,13.3c0,0,0,0,0,0c0,0.2,0.1,0.3,0.1,0.5c0.1,0.3,0.2,0.5,0.3,0.8
		c0.1,0.2,0.2,0.4,0.2,0.6c0.1,0.1,0.1,0.2,0.2,0.4c0.1,0.3,0.3,0.6,0.5,0.9l6,10.3c0.2,0.3,0.4,0.6,0.6,0.9
		c0.1,0.1,0.2,0.2,0.3,0.3c0.1,0.1,0.2,0.3,0.3,0.4c1.6,1.9,3.7,3.3,6.2,4c1,0.3,2.1,0.4,3.1,0.4c2.1,0,4.2-0.5,6-1.6
		c3.7-2.2,5.9-6,6-10.1c9.4,14,20.8,26.6,33.7,37.4c-0.9-0.1-1.9,0-2.8,0.1c-3.2,0.5-6,2.2-7.9,4.8c-3.2,4.4-3,10.4,0.2,14.5
		c0,0,0,0,0,0c0.1,0.1,0.2,0.2,0.3,0.4c0.2,0.2,0.4,0.4,0.5,0.6c0.1,0.2,0.3,0.3,0.5,0.5c0.1,0.1,0.2,0.2,0.3,0.3
		c0.3,0.2,0.5,0.4,0.8,0.7c0,0,0,0,0,0h0l9.7,7c0,0,0,0,0.1,0c0.2,0.2,0.4,0.3,0.7,0.4c0.2,0.1,0.4,0.2,0.6,0.3
		c0.1,0,0.1,0.1,0.2,0.1c1.7,0.9,3.7,1.4,5.6,1.4c0.6,0,1.3-0.1,1.9-0.2c3.2-0.5,6-2.2,7.9-4.8c1.9-2.6,2.7-5.8,2.2-9
		c-0.1-0.9-0.4-1.8-0.7-2.6c13.6,8.6,28.5,15.3,44.2,20l-0.3,1.4c-0.1,0.1-0.3,0.1-0.4,0.2c-2.7,1.8-4.6,4.5-5.2,7.6
		c-0.7,3.1-0.1,6.3,1.6,9l-9.2,38.6c-0.3,1.4,0.5,2.9,2,3.2l8.4,2c0.2,0,0.4,0.1,0.6,0.1c0.5,0,1-0.1,1.4-0.4c0.6-0.4,1-1,1.2-1.6
		l8.5-35.4l6.6,1.4c0.8,0.2,1.7,0.3,2.5,0.3c2.3,0,4.6-0.7,6.6-2c2.7-1.8,4.6-4.5,5.2-7.6c0.7-3.2,0.1-6.4-1.7-9.1
		c-0.5-0.8-1.1-1.4-1.7-2c8.2,1.2,16.6,1.8,25.1,1.8c8.5,0,16.9-0.6,25.1-1.8c-0.6,0.6-1.2,1.3-1.7,2c-1.8,2.7-2.4,5.9-1.7,9.1
		c0.7,3.2,2.5,5.9,5.2,7.6c2,1.3,4.2,2,6.6,2c0.8,0,1.7-0.1,2.5-0.3l6.6-1.4l8.5,35.4c0.2,0.7,0.6,1.3,1.2,1.6
		c0.4,0.3,0.9,0.4,1.4,0.4c0.2,0,0.4,0,0.6-0.1l8.4-2c1.4-0.3,2.3-1.8,2-3.2l-9.2-38.6c1.7-2.7,2.3-5.9,1.6-9
		c-0.7-3.2-2.5-5.9-5.2-7.6c-0.1-0.1-0.3-0.1-0.4-0.2l-0.3-1.4c15.7-4.7,30.6-11.5,44.2-20c-0.3,0.8-0.6,1.7-0.7,2.6
		c-0.5,3.2,0.3,6.4,2.2,9c1.9,2.6,4.7,4.3,7.9,4.8c0.6,0.1,1.3,0.2,1.9,0.2c2,0,3.9-0.5,5.6-1.4c0.1,0,0.1-0.1,0.2-0.1
		c0.2-0.1,0.4-0.2,0.6-0.3c0.2-0.1,0.4-0.3,0.7-0.4c0,0,0,0,0.1,0h0l9.7-7c0,0,0,0,0,0c0.3-0.2,0.5-0.4,0.8-0.7
		c0.1-0.1,0.2-0.2,0.3-0.3c0.2-0.1,0.3-0.3,0.5-0.5c0.2-0.2,0.4-0.4,0.5-0.6c0.1-0.1,0.2-0.2,0.3-0.4c0,0,0,0,0,0
		c3.2-4.1,3.5-10.1,0.2-14.5c-1.9-2.6-4.7-4.3-7.9-4.8c-0.9-0.1-1.9-0.2-2.8-0.1c12.9-10.8,24.3-23.4,33.7-37.4
		c0.1,4,2.3,7.9,6,10.1c1.9,1.1,3.9,1.6,6,1.6c1,0,2.1-0.1,3.1-0.4c2.5-0.7,4.6-2.1,6.2-4c0.1-0.1,0.2-0.3,0.3-0.4
		c0.1-0.1,0.2-0.2,0.3-0.3c0.2-0.3,0.4-0.6,0.6-0.9l6-10.3c0.2-0.3,0.3-0.6,0.5-0.9c0.1-0.1,0.1-0.2,0.2-0.4
		c0.1-0.2,0.2-0.4,0.2-0.6c0.1-0.3,0.2-0.5,0.3-0.8c0-0.2,0.1-0.3,0.1-0.5c0,0,0,0,0,0c1.2-5.1-0.9-10.6-5.7-13.3
		c-3.7-2.2-8.1-2.1-11.7-0.2c7.3-14.9,12.6-30.9,15.6-47.7c1.8,3.6,5.3,6.2,9.5,6.6c0.4,0,0.9,0.1,1.3,0.1c5.2,0,9.7-3.3,11.4-8.1
		c0-0.1,0.1-0.2,0.1-0.3c0.1-0.2,0.1-0.3,0.2-0.5c0-0.2,0.1-0.3,0.1-0.5c0-0.1,0.1-0.3,0.1-0.4c0.1-0.3,0.1-0.7,0.2-1l1.2-11.9
		c0-0.4,0.1-0.7,0.1-1.1C1292.2,594.3,1292.2,594.2,1292.2,594z M1084.1,569.5c-0.9,0.6-1.8,1.3-2.5,2.2l-106-95.4
		c14-15.6,31.2-28.3,50.4-37.2L1084.1,569.5z M1028.5,438c18.8-8.3,39.6-13,61.4-13.2v142.7c-1.2,0.1-2.3,0.4-3.4,0.8L1028.5,438z
		 M1080,573.8c-0.5,0.9-0.9,1.8-1.2,2.8l-135.7-44.1c6.5-20.2,17.1-38.7,30.8-54.3L1080,573.8z M1078.3,579.3c0,0.4-0.1,0.7-0.1,1.1
		c0,0.6,0.1,1.2,0.1,1.7L936.5,597c-0.6-5.5-0.9-11-0.9-16.7c0-15.7,2.4-30.9,6.7-45.3L1078.3,579.3z M1079,584.7
		c0.2,0.6,0.5,1.2,0.8,1.8l-0.2,0.8l-123,71c-10.3-17.7-17.1-37.5-19.8-58.6L1079,584.7z M1078.7,590.8l-2.2,9.2l-77,106
		c-16.7-12.2-30.9-27.7-41.6-45.4L1078.7,590.8z M1091.2,598.6l19.8,83l10.9,51.3c-9.9,2-20.2,3-30.7,3c-10.5,0-20.8-1.1-30.7-3
		l10.9-51.3L1091.2,598.6z M1100.8,571.7c-0.7-0.8-1.6-1.6-2.5-2.2l58.1-130.4c19.2,8.9,36.4,21.6,50.4,37.2L1100.8,571.7z
		 M1208.5,478.2c13.7,15.7,24.2,34.1,30.8,54.3l-135.7,44.1c-0.3-1-0.7-2-1.2-2.8L1208.5,478.2z M1095.9,568.3
		c-1.1-0.4-2.2-0.7-3.4-0.8V424.8c21.8,0.2,42.6,4.9,61.4,13.2L1095.9,568.3z M1103.7,590.8l120.8,69.8
		c-10.7,17.8-24.9,33.2-41.6,45.4l-77-106L1103.7,590.8z M1102.8,587.3l-0.2-0.8c0.3-0.6,0.6-1.2,0.8-1.8l142.2,14.9
		c-2.6,21.1-9.5,41-19.8,58.6L1102.8,587.3z M1104,582.1c0.1-0.6,0.1-1.2,0.1-1.7c0-0.4,0-0.7-0.1-1.1l136-44.2
		c4.4,14.3,6.7,29.5,6.7,45.3c0,5.6-0.3,11.2-0.9,16.7L1104,582.1z M1234.6,509.4l22.7,16.9l-8.4,27
		C1246.3,537.8,1241.4,523.1,1234.6,509.4z M1255.5,519.5l-25-18.6c-0.2-0.1-0.4-0.2-0.6-0.3c-0.1-0.1-0.1-0.2-0.2-0.3
		c0-0.2,0.1-0.5,0-0.7l-3.6-30.9C1238.6,483.7,1248.6,500.8,1255.5,519.5z M1221,463.4l3.3,28.2c-8.6-12.9-19.1-24.6-31.1-34.5
		L1221,463.4z M1216.3,457.9l-30.3-6.8c-0.2-0.1-0.5-0.1-0.7,0c-0.1-0.1-0.1-0.1-0.2-0.2c0-0.2-0.1-0.5-0.3-0.7l-15.9-26.8
		C1186.6,432.2,1202.6,443.9,1216.3,457.9z M1176.7,445.2c-12.9-8.2-27.1-14.6-42.2-18.9l27.7-5.6L1176.7,445.2z M1155.9,417.5
		l-30.6,6.1c-0.2,0-0.4,0.1-0.6,0.2c-0.1,0-0.3-0.1-0.4-0.1c-0.1-0.2-0.3-0.3-0.4-0.4l-25.4-18
		C1118.6,406.1,1137.9,410.4,1155.9,417.5z M1091.2,405.6l23.1,16.4c-7.5-1.1-15.2-1.7-23.1-1.7c-7.8,0-15.5,0.6-23.1,1.7
		L1091.2,405.6z M1084,405.3l-25.4,18c-0.2,0.1-0.3,0.3-0.4,0.4c-0.1,0-0.3,0.1-0.4,0.1c-0.2-0.1-0.4-0.2-0.6-0.2l-30.6-6.1
		C1044.4,410.4,1063.8,406.1,1084,405.3z M1020.1,420.7l27.7,5.6c-15.1,4.2-29.3,10.7-42.2,18.9L1020.1,420.7z M1013.4,423.4
		l-15.9,26.8c-0.1,0.2-0.2,0.5-0.3,0.7c-0.1,0.1-0.1,0.1-0.2,0.2c-0.2,0-0.5,0-0.7,0l-30.3,6.8
		C979.7,443.9,995.7,432.2,1013.4,423.4z M961.3,463.4l27.8-6.2c-11.9,9.9-22.4,21.5-31.1,34.5L961.3,463.4z M956.3,468.7l-3.6,30.9
		c0,0.2,0,0.5,0,0.7c-0.1,0.1-0.1,0.2-0.2,0.3c-0.2,0.1-0.4,0.2-0.6,0.3l-25,18.6C933.8,500.8,943.8,483.7,956.3,468.7z
		 M947.8,509.4c-6.8,13.7-11.7,28.4-14.3,43.9l-8.4-27L947.8,509.4z M916,580.4c0-16.4,2.3-32.3,6.5-47.3l9.3,29.8
		c0.1,0.2,0.2,0.4,0.3,0.6c0,0.1,0,0.3,0,0.4c-0.1,0.1-0.3,0.3-0.4,0.5l-15.3,27.2C916.1,587.8,916,584.1,916,580.4z M931.3,573.9
		c-0.1,2.1-0.1,4.3-0.1,6.4c0,13.6,1.7,26.9,4.9,39.5l-18.7-21.2L931.3,573.9z M938.9,630.6l-2.9,31c-9-17.2-15.3-36-18.2-55.9
		l20.6,23.4c0.1,0.2,0.3,0.3,0.5,0.4c0,0.1,0.1,0.3,0.1,0.4C939,630.2,938.9,630.4,938.9,630.6z M939.9,667.7l2.6-28.2
		c3,7.4,6.5,14.6,10.5,21.4c0,0.3,0,0.6,0.2,0.8c0.2,0.3,0.4,0.5,0.7,0.6c3.6,6,7.6,11.8,11.9,17.2L939.9,667.7z M943.2,674.1
		l28.3,13c0.2,0.1,0.5,0.2,0.7,0.2c0.1,0.1,0.1,0.1,0.2,0.2c0,0.2,0,0.5,0.1,0.7l9.9,29.4C967.1,705.4,953.8,690.7,943.2,674.1z
		 M988.5,721.7l-9.1-27c5.5,5.4,11.4,10.4,17.6,14.9c-0.1,0.5,0,1.1,0.5,1.4c0.2,0.2,0.5,0.3,0.8,0.3c0.3,0,0.5-0.1,0.7-0.2
		c5.7,4,11.7,7.7,17.9,11L988.5,721.7z M1041.1,748.3c-16.9-5-32.6-12.5-47-22.1l31.1,0.4c0,0,0,0,0,0c0.2,0,0.4,0,0.6-0.1
		c0.1,0.1,0.2,0.1,0.4,0.2c0.1,0.2,0.2,0.4,0.4,0.5l15.5,16.8L1041.1,748.3z M1043.4,738.8l-7.7-8.4c3,1.1,5.9,2.1,9,3L1043.4,738.8
		z M1045.7,729.2c-15.9-4.9-30.7-12.2-44-21.6l73.3-100.8L1045.7,729.2z M1054.9,751.2L1054.9,751.2l3.1-13.3c0,0,0.1,0,0.1,0
		c0.1,0,0.2,0,0.3,0c0.5,0,1-0.3,1.2-0.8c7,1.4,14.1,2.3,21.3,2.8L1054.9,751.2z M1091.2,755.6c-10,0-19.9-0.9-29.4-2.5l28.7-12.4
		c0.2-0.1,0.4-0.2,0.5-0.3c0.1,0,0.1,0,0.2,0c0.1,0,0.1,0,0.2,0c0.2,0.1,0.3,0.3,0.5,0.3l28.7,12.4
		C1111,754.7,1101.2,755.6,1091.2,755.6z M1127.5,751.2l-26-11.2c7.3-0.5,14.4-1.4,21.3-2.8c0.2,0.5,0.7,0.8,1.2,0.8
		c0.1,0,0.2,0,0.3,0c0,0,0.1,0,0.1,0L1127.5,751.2L1127.5,751.2z M1107.4,606.7l73.3,100.8c-13.3,9.4-28.1,16.7-44,21.6
		L1107.4,606.7z M1137.7,733.5c3-0.9,6-1.9,9-3l-7.7,8.4L1137.7,733.5z M1141.2,748.3l-1-4.3l15.5-16.8c0.2-0.2,0.3-0.4,0.4-0.5
		c0.1-0.1,0.2-0.1,0.4-0.2c0.2,0.1,0.4,0.1,0.6,0.1c0,0,0,0,0,0l31.1-0.4C1173.9,735.7,1158.1,743.2,1141.2,748.3z M1193.9,721.7
		l-28.4,0.3c6.2-3.3,12.2-6.9,17.9-11c0.2,0.1,0.5,0.2,0.7,0.2c0.3,0,0.5-0.1,0.8-0.3c0.5-0.3,0.6-0.9,0.5-1.4
		c6.2-4.5,12.1-9.5,17.6-14.9L1193.9,721.7z M1199.9,717.6l9.9-29.4c0.1-0.2,0.1-0.5,0.1-0.7c0.1-0.1,0.1-0.1,0.2-0.2
		c0.2,0,0.5-0.1,0.7-0.2l28.3-13C1228.6,690.7,1215.3,705.4,1199.9,717.6z M1216.6,679.6c4.3-5.5,8.3-11.2,11.9-17.2
		c0.3-0.1,0.5-0.3,0.7-0.6c0.2-0.3,0.2-0.6,0.2-0.8c4-6.8,7.5-14,10.5-21.4l2.6,28.2L1216.6,679.6z M1246.4,661.6l-2.9-31
		c0-0.2-0.1-0.4-0.2-0.6c0-0.1,0.1-0.3,0.1-0.4c0.2-0.1,0.3-0.2,0.5-0.4l20.6-23.4C1261.7,625.7,1255.4,644.5,1246.4,661.6z
		 M1246.3,619.8c3.2-12.6,4.9-25.9,4.9-39.5c0-2.2-0.1-4.3-0.1-6.4l13.9,24.7L1246.3,619.8z M1266,591.5l-15.3-27.2
		c-0.1-0.2-0.2-0.3-0.4-0.5c0-0.1,0-0.3,0-0.4c0.1-0.2,0.2-0.4,0.3-0.6l9.3-29.8c4.2,15.1,6.5,30.9,6.5,47.3
		C1266.4,584.1,1266.3,587.8,1266,591.5z"/>
	<g>
		<g>
			<g>
				<path class="st3" d="M234,765.4c-0.8,0-1.5-0.7-1.5-1.5V634.6c0-0.8,0.7-1.5,1.5-1.5s1.5,0.7,1.5,1.5v129.3
					C235.5,764.7,234.8,765.4,234,765.4z"/>
				<path class="st3" d="M201.9,765.4c-0.8,0-1.5-0.7-1.5-1.5V663.3c0-0.8,0.7-1.5,1.5-1.5s1.5,0.7,1.5,1.5v100.6
					C203.4,764.7,202.7,765.4,201.9,765.4z"/>
				<path class="st3" d="M169.8,765.4c-0.8,0-1.5-0.7-1.5-1.5v-82.8c0-0.8,0.7-1.5,1.5-1.5s1.5,0.7,1.5,1.5v82.8
					C171.3,764.7,170.6,765.4,169.8,765.4z"/>
				<path class="st3" d="M137.7,765.4c-0.8,0-1.5-0.7-1.5-1.5v-73.1c0-0.8,0.7-1.5,1.5-1.5s1.5,0.7,1.5,1.5v73.1
					C139.2,764.7,138.5,765.4,137.7,765.4z"/>
				<g>
					<rect x="120" y="764.4" class="st4" width="137.7" height="8.3"/>
					<path class="st3" d="M257.7,775.3H120c-1.4,0-2.5-1.1-2.5-2.5v-8.3c0-1.4,1.1-2.5,2.5-2.5h137.7c1.4,0,2.5,1.1,2.5,2.5v8.3
						C260.2,774.1,259.1,775.3,257.7,775.3z M122.5,770.3h132.7v-3.3H122.5V770.3z"/>
				</g>
				<path class="st3" d="M120,695.9c-1.4,0-2.5-1.1-2.5-2.5s1.1-2.5,2.5-2.5c46.4,0,108.4-41,135.6-89.6c0.7-1.2,2.2-1.6,3.4-1
					c1.2,0.7,1.6,2.2,1,3.4C232,653.7,167.9,695.9,120,695.9z"/>
			</g>
			<g>
				<path class="st3" d="M678.4,765.4c-0.8,0-1.5-0.7-1.5-1.5V634.6c0-0.8,0.7-1.5,1.5-1.5s1.5,0.7,1.5,1.5v129.3
					C679.9,764.7,679.3,765.4,678.4,765.4z"/>
				<path class="st3" d="M710.5,765.4c-0.8,0-1.5-0.7-1.5-1.5V663.3c0-0.8,0.7-1.5,1.5-1.5s1.5,0.7,1.5,1.5v100.6
					C712,764.7,711.4,765.4,710.5,765.4z"/>
				<path class="st3" d="M742.7,765.4c-0.8,0-1.5-0.7-1.5-1.5v-82.8c0-0.8,0.7-1.5,1.5-1.5s1.5,0.7,1.5,1.5v82.8
					C744.2,764.7,743.5,765.4,742.7,765.4z"/>
				<path class="st3" d="M774.8,765.4c-0.8,0-1.5-0.7-1.5-1.5v-73.1c0-0.8,0.7-1.5,1.5-1.5s1.5,0.7,1.5,1.5v73.1
					C776.3,764.7,775.6,765.4,774.8,765.4z"/>
				<g>
					<rect x="654.7" y="764.4" class="st4" width="137.7" height="8.3"/>
					<path class="st3" d="M792.5,775.3H654.7c-1.4,0-2.5-1.1-2.5-2.5v-8.3c0-1.4,1.1-2.5,2.5-2.5h137.7c1.4,0,2.5,1.1,2.5,2.5v8.3
						C795,774.1,793.8,775.3,792.5,775.3z M657.2,770.3H790v-3.3H657.2V770.3z"/>
				</g>
				<path class="st3" d="M792.5,695.9c-47.9,0-112-42.2-139.9-92.1c-0.7-1.2-0.2-2.7,1-3.4c1.2-0.7,2.7-0.2,3.4,1
					c27.1,48.6,89.2,89.6,135.6,89.6c1.4,0,2.5,1.1,2.5,2.5S793.8,695.9,792.5,695.9z"/>
			</g>
		</g>
		<g>
			<g>
				<g>
					
						<rect x="336.4" y="745.4" transform="matrix(0.9135 -0.4067 0.4067 0.9135 -271.034 223.9325)" class="st4" width="109.7" height="8.3"/>
					<path class="st3" d="M342.8,778.1c-0.3,0-0.6-0.1-0.9-0.2c-0.6-0.2-1.1-0.7-1.4-1.3l-3.4-7.6c-0.6-1.3,0-2.7,1.3-3.3
						l100.2-44.6c1.3-0.6,2.7,0,3.3,1.3l3.4,7.6c0.3,0.6,0.3,1.3,0.1,1.9s-0.7,1.1-1.3,1.4l-100.2,44.6
						C343.5,778.1,343.2,778.1,342.8,778.1z M342.7,769.3l1.4,3l95.6-42.6l-1.4-3L342.7,769.3z"/>
				</g>
				<path class="st3" d="M345.8,797.2c-0.7,0-1.3-0.3-1.8-0.8c-0.9-1-0.9-2.6,0.1-3.5c16.2-15.1,94.3-62,97.7-63.9
					c1.2-0.7,2.7-0.3,3.4,0.9c0.7,1.2,0.3,2.7-0.9,3.4c-0.8,0.5-81,48.6-96.8,63.3C347,796.9,346.4,797.2,345.8,797.2z"/>
				<path class="st3" d="M360.3,784.5c-1,0-1.9-0.6-2.3-1.5l-5.2-11.8c-0.6-1.3,0-2.7,1.3-3.3c1.3-0.6,2.7,0,3.3,1.3l5.2,11.8
					c0.6,1.3,0,2.7-1.3,3.3C360.9,784.4,360.6,784.5,360.3,784.5z"/>
				<path class="st3" d="M373.8,776.8c-1,0-1.9-0.6-2.3-1.5l-4.7-10.5c-0.6-1.3,0-2.7,1.3-3.3c1.3-0.6,2.7,0,3.3,1.3l4.7,10.5
					c0.6,1.3,0,2.7-1.3,3.3C374.5,776.8,374.2,776.8,373.8,776.8z"/>
				<path class="st3" d="M387,768.3c-1,0-1.9-0.6-2.3-1.5l-3.6-8.2c-0.6-1.3,0-2.7,1.3-3.3c1.3-0.6,2.7,0,3.3,1.3l3.6,8.2
					c0.6,1.3,0,2.7-1.3,3.3C387.7,768.2,387.3,768.3,387,768.3z"/>
			</g>
			<g>
				<g>
					
						<rect x="517.1" y="694.7" transform="matrix(0.4067 -0.9135 0.9135 0.4067 -375.5063 920.8181)" class="st4" width="8.3" height="109.7"/>
					<path class="st3" d="M569.6,778.1c-0.3,0-0.7-0.1-1-0.2l-100.2-44.6c-1.3-0.6-1.8-2-1.3-3.3l3.4-7.6c0.3-0.6,0.8-1.1,1.4-1.3
						c0.6-0.2,1.3-0.2,1.9,0L574,765.7c1.3,0.6,1.8,2,1.3,3.3l-3.4,7.6c-0.3,0.6-0.8,1.1-1.4,1.3
						C570.2,778.1,569.9,778.1,569.6,778.1z M472.7,729.8l95.6,42.6l1.4-3l-95.6-42.6L472.7,729.8z"/>
				</g>
				<path class="st3" d="M566.7,797.2c-0.6,0-1.2-0.2-1.7-0.7c-15.9-14.7-96-62.8-96.8-63.3c-1.2-0.7-1.6-2.2-0.9-3.4
					c0.7-1.2,2.2-1.6,3.4-0.9c3.3,2,81.4,48.9,97.7,63.9c1,0.9,1.1,2.5,0.1,3.5C568,796.9,567.3,797.2,566.7,797.2z"/>
				<path class="st3" d="M552.2,784.5c-0.3,0-0.7-0.1-1-0.2c-1.3-0.6-1.8-2-1.3-3.3l5.2-11.8c0.6-1.3,2-1.8,3.3-1.3
					c1.3,0.6,1.8,2,1.3,3.3l-5.2,11.8C554.1,783.9,553.2,784.5,552.2,784.5z"/>
				<path class="st3" d="M538.6,776.8c-0.3,0-0.7-0.1-1-0.2c-1.3-0.6-1.8-2-1.3-3.3l4.7-10.5c0.6-1.3,2-1.8,3.3-1.3
					c1.3,0.6,1.8,2,1.3,3.3l-4.7,10.5C540.5,776.3,539.6,776.8,538.6,776.8z"/>
				<path class="st3" d="M525.5,768.3c-0.3,0-0.7-0.1-1-0.2c-1.3-0.6-1.8-2-1.3-3.3l3.6-8.2c0.6-1.3,2-1.8,3.3-1.3
					c1.3,0.6,1.8,2,1.3,3.3l-3.6,8.2C527.3,767.7,526.4,768.3,525.5,768.3z"/>
			</g>
		</g>
		<g>
			<g>
				<polygon class="st5" points="257.7,561.7 257.7,575.8 341.5,575.8 341.5,561.7 299.6,445.9 				"/>
				<polygon class="st6" points="257.7,575.8 275.1,575.8 275.1,561.7 299.6,445.9 257.7,561.7 				"/>
				<polygon class="st7" points="299.6,445.9 324.1,561.7 324.1,575.8 341.5,575.8 341.5,561.7 				"/>
				<path class="st3" d="M341.5,578.3h-83.8c-1.4,0-2.5-1.1-2.5-2.5v-14.1c0-0.3,0.1-0.6,0.1-0.8L297.3,445c0.4-1,1.3-1.6,2.4-1.6
					s2,0.7,2.4,1.6l41.9,115.8c0.1,0.3,0.1,0.6,0.1,0.8v14.1C344,577.2,342.9,578.3,341.5,578.3z M260.2,573.3H339v-11.2
					l-39.4-108.9l-39.4,108.9V573.3z"/>
				<rect x="249.9" y="764.4" class="st8" width="99.4" height="50.8"/>
				<path class="st3" d="M349.3,817.7h-99.4c-1.4,0-2.5-1.1-2.5-2.5v-50.8c0-1.4,1.1-2.5,2.5-2.5h99.4c1.4,0,2.5,1.1,2.5,2.5v50.8
					C351.8,816.6,350.7,817.7,349.3,817.7z M252.4,812.7h94.4v-45.8h-94.4V812.7z"/>
				<g>
					<rect x="257.7" y="575.8" class="st8" width="83.8" height="188.6"/>
					<rect x="257.7" y="575.8" class="st9" width="14.7" height="188.6"/>
					<path class="st3" d="M272.5,766.9h-14.7c-1.4,0-2.5-1.1-2.5-2.5V575.8c0-1.4,1.1-2.5,2.5-2.5h14.7c1.4,0,2.5,1.1,2.5,2.5v188.6
						C275,765.8,273.9,766.9,272.5,766.9z M260.2,761.9h9.7V578.3h-9.7V761.9z"/>
					<rect x="326.8" y="575.8" class="st9" width="14.7" height="188.6"/>
					<path class="st3" d="M341.5,766.9h-14.7c-1.4,0-2.5-1.1-2.5-2.5V575.8c0-1.4,1.1-2.5,2.5-2.5h14.7c1.4,0,2.5,1.1,2.5,2.5v188.6
						C344,765.8,342.9,766.9,341.5,766.9z M329.3,761.9h9.7V578.3h-9.7V761.9z"/>
					<path class="st3" d="M341.5,766.9h-83.8c-1.4,0-2.5-1.1-2.5-2.5V575.8c0-1.4,1.1-2.5,2.5-2.5h83.8c1.4,0,2.5,1.1,2.5,2.5v188.6
						C344,765.8,342.9,766.9,341.5,766.9z M260.2,761.9H339V578.3h-78.8V761.9z"/>
					<g>
						<g>
							<path class="st3" d="M341.5,636.1h-83.8c-0.8,0-1.5-0.7-1.5-1.5s0.7-1.5,1.5-1.5h83.8c0.8,0,1.5,0.7,1.5,1.5
								S342.3,636.1,341.5,636.1z"/>
							<path class="st3" d="M341.5,648.4h-83.8c-0.8,0-1.5-0.7-1.5-1.5s0.7-1.5,1.5-1.5h83.8c0.8,0,1.5,0.7,1.5,1.5
								S342.3,648.4,341.5,648.4z"/>
						</g>
						<g>
							<path class="st3" d="M341.5,694.9h-83.8c-0.8,0-1.5-0.7-1.5-1.5s0.7-1.5,1.5-1.5h83.8c0.8,0,1.5,0.7,1.5,1.5
								S342.3,694.9,341.5,694.9z"/>
							<path class="st3" d="M341.5,707.2h-83.8c-0.8,0-1.5-0.7-1.5-1.5s0.7-1.5,1.5-1.5h83.8c0.8,0,1.5,0.7,1.5,1.5
								S342.3,707.2,341.5,707.2z"/>
						</g>
					</g>
					<g>
						<g>
							<g>
								<rect x="282" y="595.8" class="st10" width="6.9" height="19.7"/>
								<path class="st3" d="M288.8,617H282c-0.8,0-1.5-0.7-1.5-1.5v-19.7c0-0.8,0.7-1.5,1.5-1.5h6.9c0.8,0,1.5,0.7,1.5,1.5v19.7
									C290.3,616.3,289.7,617,288.8,617z M283.5,614h3.9v-16.7h-3.9V614z"/>
							</g>
							<g>
								<rect x="296.2" y="595.8" class="st10" width="6.9" height="19.7"/>
								<path class="st3" d="M303.1,617h-6.9c-0.8,0-1.5-0.7-1.5-1.5v-19.7c0-0.8,0.7-1.5,1.5-1.5h6.9c0.8,0,1.5,0.7,1.5,1.5v19.7
									C304.6,616.3,303.9,617,303.1,617z M297.7,614h3.9v-16.7h-3.9V614z"/>
							</g>
							<g>
								<rect x="310.4" y="595.8" class="st10" width="6.9" height="19.7"/>
								<path class="st3" d="M317.3,617h-6.9c-0.8,0-1.5-0.7-1.5-1.5v-19.7c0-0.8,0.7-1.5,1.5-1.5h6.9c0.8,0,1.5,0.7,1.5,1.5v19.7
									C318.8,616.3,318.1,617,317.3,617z M311.9,614h3.9v-16.7h-3.9V614z"/>
							</g>
						</g>
						<g>
							<g>
								<rect x="282" y="660.3" class="st10" width="6.9" height="19.7"/>
								<path class="st3" d="M288.8,681.5H282c-0.8,0-1.5-0.7-1.5-1.5v-19.7c0-0.8,0.7-1.5,1.5-1.5h6.9c0.8,0,1.5,0.7,1.5,1.5V680
									C290.3,680.8,289.7,681.5,288.8,681.5z M283.5,678.5h3.9v-16.7h-3.9V678.5z"/>
							</g>
							<g>
								<rect x="296.2" y="660.3" class="st10" width="6.9" height="19.7"/>
								<path class="st3" d="M303.1,681.5h-6.9c-0.8,0-1.5-0.7-1.5-1.5v-19.7c0-0.8,0.7-1.5,1.5-1.5h6.9c0.8,0,1.5,0.7,1.5,1.5V680
									C304.6,680.8,303.9,681.5,303.1,681.5z M297.7,678.5h3.9v-16.7h-3.9V678.5z"/>
							</g>
							<g>
								<rect x="310.4" y="660.3" class="st10" width="6.9" height="19.7"/>
								<path class="st3" d="M317.3,681.5h-6.9c-0.8,0-1.5-0.7-1.5-1.5v-19.7c0-0.8,0.7-1.5,1.5-1.5h6.9c0.8,0,1.5,0.7,1.5,1.5V680
									C318.8,680.8,318.1,681.5,317.3,681.5z M311.9,678.5h3.9v-16.7h-3.9V678.5z"/>
							</g>
						</g>
						<g>
							<g>
								<rect x="282" y="724.8" class="st10" width="6.9" height="19.7"/>
								<path class="st3" d="M288.8,745.9H282c-0.8,0-1.5-0.7-1.5-1.5v-19.7c0-0.8,0.7-1.5,1.5-1.5h6.9c0.8,0,1.5,0.7,1.5,1.5v19.7
									C290.3,745.3,289.7,745.9,288.8,745.9z M283.5,742.9h3.9v-16.7h-3.9V742.9z"/>
							</g>
							<g>
								<rect x="296.2" y="724.8" class="st10" width="6.9" height="19.7"/>
								<path class="st3" d="M303.1,745.9h-6.9c-0.8,0-1.5-0.7-1.5-1.5v-19.7c0-0.8,0.7-1.5,1.5-1.5h6.9c0.8,0,1.5,0.7,1.5,1.5v19.7
									C304.6,745.3,303.9,745.9,303.1,745.9z M297.7,742.9h3.9v-16.7h-3.9V742.9z"/>
							</g>
							<g>
								<rect x="310.4" y="724.8" class="st10" width="6.9" height="19.7"/>
								<path class="st3" d="M317.3,745.9h-6.9c-0.8,0-1.5-0.7-1.5-1.5v-19.7c0-0.8,0.7-1.5,1.5-1.5h6.9c0.8,0,1.5,0.7,1.5,1.5v19.7
									C318.8,745.3,318.1,745.9,317.3,745.9z M311.9,742.9h3.9v-16.7h-3.9V742.9z"/>
							</g>
						</g>
					</g>
				</g>
				<g>
					<rect x="326.8" y="552.2" class="st9" width="14.7" height="23.6"/>
					<path class="st3" d="M341.5,578.3h-14.7c-1.4,0-2.5-1.1-2.5-2.5v-23.6c0-1.4,1.1-2.5,2.5-2.5h14.7c1.4,0,2.5,1.1,2.5,2.5v23.6
						C344,577.2,342.9,578.3,341.5,578.3z M329.3,573.3h9.7v-18.6h-9.7V573.3z"/>
					<g>
						<polygon class="st11" points="326.8,552.2 334.1,513.7 341.5,552.2 						"/>
						<path class="st3" d="M341.5,554.7h-14.7c-0.7,0-1.5-0.3-1.9-0.9c-0.5-0.6-0.7-1.3-0.5-2.1l7.4-38.5c0.2-1.2,1.3-2,2.5-2
							s2.2,0.9,2.5,2l7.4,38.5c0.1,0.7-0.1,1.5-0.5,2.1C343,554.4,342.3,554.7,341.5,554.7z M329.8,549.7h8.7l-4.3-22.7L329.8,549.7
							z"/>
					</g>
					<path class="st3" d="M334.1,516.2c-1.4,0-2.5-1.1-2.5-2.5v-18.9c0-1.4,1.1-2.5,2.5-2.5s2.5,1.1,2.5,2.5v18.9
						C336.6,515.1,335.5,516.2,334.1,516.2z"/>
				</g>
				<g>
					<rect x="257.7" y="552.2" class="st9" width="14.7" height="23.6"/>
					<path class="st3" d="M272.5,578.3h-14.7c-1.4,0-2.5-1.1-2.5-2.5v-23.6c0-1.4,1.1-2.5,2.5-2.5h14.7c1.4,0,2.5,1.1,2.5,2.5v23.6
						C275,577.2,273.9,578.3,272.5,578.3z M260.2,573.3h9.7v-18.6h-9.7V573.3z"/>
					<g>
						<polygon class="st11" points="257.7,552.2 265.1,513.7 272.5,552.2 						"/>
						<path class="st3" d="M272.5,554.7h-14.7c-0.7,0-1.5-0.3-1.9-0.9c-0.5-0.6-0.7-1.3-0.5-2.1l7.4-38.5c0.2-1.2,1.3-2,2.5-2
							s2.2,0.9,2.5,2l7.4,38.5c0.1,0.7-0.1,1.5-0.5,2.1C273.9,554.4,273.2,554.7,272.5,554.7z M260.8,549.7h8.7l-4.3-22.7
							L260.8,549.7z"/>
					</g>
					<path class="st3" d="M265.1,516.2c-1.4,0-2.5-1.1-2.5-2.5v-18.9c0-1.4,1.1-2.5,2.5-2.5s2.5,1.1,2.5,2.5v18.9
						C267.6,515.1,266.5,516.2,265.1,516.2z"/>
				</g>
				<polygon class="st8" points="286,547.4 299.6,531.5 313.2,547.4 313.2,575.8 286,575.8 				"/>
				<path class="st3" d="M313.2,578.3H286c-1.4,0-2.5-1.1-2.5-2.5v-28.5c0-0.6,0.2-1.2,0.6-1.6l13.6-15.9c1-1.1,2.8-1.1,3.8,0
					l13.6,15.9c0.4,0.5,0.6,1,0.6,1.6v28.5C315.7,577.2,314.6,578.3,313.2,578.3z M288.5,573.3h22.2v-25l-11.1-13l-11.1,13V573.3z"
					/>
				<g>
					<rect x="292.8" y="553.2" class="st3" width="5.9" height="6.1"/>
					<rect x="300.5" y="553.2" class="st3" width="5.9" height="6.1"/>
					<rect x="292.8" y="560.8" class="st3" width="5.9" height="6.1"/>
					<rect x="300.5" y="560.8" class="st3" width="5.9" height="6.1"/>
				</g>
				<path class="st3" d="M299.6,448.4c-1.4,0-2.5-1.1-2.5-2.5v-20.1c0-1.4,1.1-2.5,2.5-2.5s2.5,1.1,2.5,2.5v20.1
					C302.1,447.2,301,448.4,299.6,448.4z"/>
			</g>
			<g>
				<polygon class="st5" points="570.9,561.7 570.9,575.8 654.7,575.8 654.7,561.7 612.8,445.9 				"/>
				<polygon class="st6" points="570.9,575.8 588.3,575.8 588.3,561.7 612.8,445.9 570.9,561.7 				"/>
				<polygon class="st7" points="612.8,445.9 637.4,561.7 637.4,575.8 654.7,575.8 654.7,561.7 				"/>
				<path class="st3" d="M654.7,578.3h-83.8c-1.4,0-2.5-1.1-2.5-2.5v-14.1c0-0.3,0.1-0.6,0.1-0.8L610.5,445c0.4-1,1.3-1.6,2.4-1.6
					s2,0.7,2.4,1.6l41.9,115.8c0.1,0.3,0.1,0.6,0.1,0.8v14.1C657.2,577.2,656.1,578.3,654.7,578.3z M573.4,573.3h78.8v-11.2
					l-39.4-108.9l-39.4,108.9V573.3z"/>
				<rect x="563.1" y="764.4" class="st8" width="99.4" height="50.8"/>
				<path class="st3" d="M662.5,817.7h-99.4c-1.4,0-2.5-1.1-2.5-2.5v-50.8c0-1.4,1.1-2.5,2.5-2.5h99.4c1.4,0,2.5,1.1,2.5,2.5v50.8
					C665,816.6,663.9,817.7,662.5,817.7z M565.6,812.7H660v-45.8h-94.4V812.7z"/>
				<g>
					<rect x="570.9" y="575.8" class="st8" width="83.8" height="188.6"/>
					<rect x="570.9" y="575.8" class="st9" width="14.7" height="188.6"/>
					<path class="st3" d="M585.7,766.9h-14.7c-1.4,0-2.5-1.1-2.5-2.5V575.8c0-1.4,1.1-2.5,2.5-2.5h14.7c1.4,0,2.5,1.1,2.5,2.5v188.6
						C588.2,765.8,587.1,766.9,585.7,766.9z M573.4,761.9h9.7V578.3h-9.7V761.9z"/>
					<rect x="640" y="575.8" class="st9" width="14.7" height="188.6"/>
					<path class="st3" d="M654.7,766.9H640c-1.4,0-2.5-1.1-2.5-2.5V575.8c0-1.4,1.1-2.5,2.5-2.5h14.7c1.4,0,2.5,1.1,2.5,2.5v188.6
						C657.2,765.8,656.1,766.9,654.7,766.9z M642.5,761.9h9.7V578.3h-9.7V761.9z"/>
					<path class="st3" d="M654.7,766.9h-83.8c-1.4,0-2.5-1.1-2.5-2.5V575.8c0-1.4,1.1-2.5,2.5-2.5h83.8c1.4,0,2.5,1.1,2.5,2.5v188.6
						C657.2,765.8,656.1,766.9,654.7,766.9z M573.4,761.9h78.8V578.3h-78.8V761.9z"/>
					<g>
						<g>
							<path class="st3" d="M654.7,636.1h-83.8c-0.8,0-1.5-0.7-1.5-1.5s0.7-1.5,1.5-1.5h83.8c0.8,0,1.5,0.7,1.5,1.5
								S655.5,636.1,654.7,636.1z"/>
							<path class="st3" d="M654.7,648.4h-83.8c-0.8,0-1.5-0.7-1.5-1.5s0.7-1.5,1.5-1.5h83.8c0.8,0,1.5,0.7,1.5,1.5
								S655.5,648.4,654.7,648.4z"/>
						</g>
						<g>
							<path class="st3" d="M654.7,694.9h-83.8c-0.8,0-1.5-0.7-1.5-1.5s0.7-1.5,1.5-1.5h83.8c0.8,0,1.5,0.7,1.5,1.5
								S655.5,694.9,654.7,694.9z"/>
							<path class="st3" d="M654.7,707.2h-83.8c-0.8,0-1.5-0.7-1.5-1.5s0.7-1.5,1.5-1.5h83.8c0.8,0,1.5,0.7,1.5,1.5
								S655.5,707.2,654.7,707.2z"/>
						</g>
					</g>
					<g>
						<g>
							<g>
								<rect x="595.2" y="595.8" class="st10" width="6.9" height="19.7"/>
								<path class="st3" d="M602,617h-6.9c-0.8,0-1.5-0.7-1.5-1.5v-19.7c0-0.8,0.7-1.5,1.5-1.5h6.9c0.8,0,1.5,0.7,1.5,1.5v19.7
									C603.5,616.3,602.9,617,602,617z M596.7,614h3.9v-16.7h-3.9V614z"/>
							</g>
							<g>
								<rect x="609.4" y="595.8" class="st10" width="6.9" height="19.7"/>
								<path class="st3" d="M616.3,617h-6.9c-0.8,0-1.5-0.7-1.5-1.5v-19.7c0-0.8,0.7-1.5,1.5-1.5h6.9c0.8,0,1.5,0.7,1.5,1.5v19.7
									C617.8,616.3,617.1,617,616.3,617z M610.9,614h3.9v-16.7h-3.9V614z"/>
							</g>
							<g>
								<rect x="623.6" y="595.8" class="st10" width="6.9" height="19.7"/>
								<path class="st3" d="M630.5,617h-6.9c-0.8,0-1.5-0.7-1.5-1.5v-19.7c0-0.8,0.7-1.5,1.5-1.5h6.9c0.8,0,1.5,0.7,1.5,1.5v19.7
									C632,616.3,631.3,617,630.5,617z M625.1,614h3.9v-16.7h-3.9V614z"/>
							</g>
						</g>
						<g>
							<g>
								<rect x="595.2" y="660.3" class="st10" width="6.9" height="19.7"/>
								<path class="st3" d="M602,681.5h-6.9c-0.8,0-1.5-0.7-1.5-1.5v-19.7c0-0.8,0.7-1.5,1.5-1.5h6.9c0.8,0,1.5,0.7,1.5,1.5V680
									C603.5,680.8,602.9,681.5,602,681.5z M596.7,678.5h3.9v-16.7h-3.9V678.5z"/>
							</g>
							<g>
								<rect x="609.4" y="660.3" class="st10" width="6.9" height="19.7"/>
								<path class="st3" d="M616.3,681.5h-6.9c-0.8,0-1.5-0.7-1.5-1.5v-19.7c0-0.8,0.7-1.5,1.5-1.5h6.9c0.8,0,1.5,0.7,1.5,1.5V680
									C617.8,680.8,617.1,681.5,616.3,681.5z M610.9,678.5h3.9v-16.7h-3.9V678.5z"/>
							</g>
							<g>
								<rect x="623.6" y="660.3" class="st10" width="6.9" height="19.7"/>
								<path class="st3" d="M630.5,681.5h-6.9c-0.8,0-1.5-0.7-1.5-1.5v-19.7c0-0.8,0.7-1.5,1.5-1.5h6.9c0.8,0,1.5,0.7,1.5,1.5V680
									C632,680.8,631.3,681.5,630.5,681.5z M625.1,678.5h3.9v-16.7h-3.9V678.5z"/>
							</g>
						</g>
						<g>
							<g>
								<rect x="595.2" y="724.8" class="st10" width="6.9" height="19.7"/>
								<path class="st3" d="M602,745.9h-6.9c-0.8,0-1.5-0.7-1.5-1.5v-19.7c0-0.8,0.7-1.5,1.5-1.5h6.9c0.8,0,1.5,0.7,1.5,1.5v19.7
									C603.5,745.3,602.9,745.9,602,745.9z M596.7,742.9h3.9v-16.7h-3.9V742.9z"/>
							</g>
							<g>
								<rect x="609.4" y="724.8" class="st10" width="6.9" height="19.7"/>
								<path class="st3" d="M616.3,745.9h-6.9c-0.8,0-1.5-0.7-1.5-1.5v-19.7c0-0.8,0.7-1.5,1.5-1.5h6.9c0.8,0,1.5,0.7,1.5,1.5v19.7
									C617.8,745.3,617.1,745.9,616.3,745.9z M610.9,742.9h3.9v-16.7h-3.9V742.9z"/>
							</g>
							<g>
								<rect x="623.6" y="724.8" class="st10" width="6.9" height="19.7"/>
								<path class="st3" d="M630.5,745.9h-6.9c-0.8,0-1.5-0.7-1.5-1.5v-19.7c0-0.8,0.7-1.5,1.5-1.5h6.9c0.8,0,1.5,0.7,1.5,1.5v19.7
									C632,745.3,631.3,745.9,630.5,745.9z M625.1,742.9h3.9v-16.7h-3.9V742.9z"/>
							</g>
						</g>
					</g>
				</g>
				<g>
					<rect x="640" y="552.2" class="st9" width="14.7" height="23.6"/>
					<path class="st3" d="M654.7,578.3H640c-1.4,0-2.5-1.1-2.5-2.5v-23.6c0-1.4,1.1-2.5,2.5-2.5h14.7c1.4,0,2.5,1.1,2.5,2.5v23.6
						C657.2,577.2,656.1,578.3,654.7,578.3z M642.5,573.3h9.7v-18.6h-9.7V573.3z"/>
					<g>
						<polygon class="st11" points="640,552.2 647.4,513.7 654.7,552.2 						"/>
						<path class="st3" d="M654.7,554.7H640c-0.7,0-1.5-0.3-1.9-0.9c-0.5-0.6-0.7-1.3-0.5-2.1l7.4-38.5c0.2-1.2,1.3-2,2.5-2
							s2.2,0.9,2.5,2l7.4,38.5c0.1,0.7-0.1,1.5-0.5,2.1C656.2,554.4,655.5,554.7,654.7,554.7z M643,549.7h8.7l-4.3-22.7L643,549.7z"
							/>
					</g>
					<path class="st3" d="M647.4,516.2c-1.4,0-2.5-1.1-2.5-2.5v-18.9c0-1.4,1.1-2.5,2.5-2.5s2.5,1.1,2.5,2.5v18.9
						C649.9,515.1,648.7,516.2,647.4,516.2z"/>
				</g>
				<g>
					<rect x="570.9" y="552.2" class="st9" width="14.7" height="23.6"/>
					<path class="st3" d="M585.7,578.3h-14.7c-1.4,0-2.5-1.1-2.5-2.5v-23.6c0-1.4,1.1-2.5,2.5-2.5h14.7c1.4,0,2.5,1.1,2.5,2.5v23.6
						C588.2,577.2,587.1,578.3,585.7,578.3z M573.4,573.3h9.7v-18.6h-9.7V573.3z"/>
					<g>
						<polygon class="st11" points="570.9,552.2 578.3,513.7 585.7,552.2 						"/>
						<path class="st3" d="M585.7,554.7h-14.7c-0.7,0-1.5-0.3-1.9-0.9c-0.5-0.6-0.7-1.3-0.5-2.1l7.4-38.5c0.2-1.2,1.3-2,2.5-2
							s2.2,0.9,2.5,2l7.4,38.5c0.1,0.7-0.1,1.5-0.5,2.1C587.1,554.4,586.4,554.7,585.7,554.7z M574,549.7h8.7l-4.3-22.7L574,549.7z"
							/>
					</g>
					<path class="st3" d="M578.3,516.2c-1.4,0-2.5-1.1-2.5-2.5v-18.9c0-1.4,1.1-2.5,2.5-2.5s2.5,1.1,2.5,2.5v18.9
						C580.8,515.1,579.7,516.2,578.3,516.2z"/>
				</g>
				<polygon class="st8" points="599.2,547.4 612.8,531.5 626.4,547.4 626.4,575.8 599.2,575.8 				"/>
				<path class="st3" d="M626.4,578.3h-27.2c-1.4,0-2.5-1.1-2.5-2.5v-28.5c0-0.6,0.2-1.2,0.6-1.6l13.6-15.9c1-1.1,2.8-1.1,3.8,0
					l13.6,15.9c0.4,0.5,0.6,1,0.6,1.6v28.5C628.9,577.2,627.8,578.3,626.4,578.3z M601.7,573.3h22.2v-25l-11.1-13l-11.1,13V573.3z"
					/>
				<g>
					<rect x="606" y="553.2" class="st3" width="5.9" height="6.1"/>
					<rect x="613.7" y="553.2" class="st3" width="5.9" height="6.1"/>
					<rect x="606" y="560.8" class="st3" width="5.9" height="6.1"/>
					<rect x="613.7" y="560.8" class="st3" width="5.9" height="6.1"/>
				</g>
				<path class="st3" d="M612.8,448.4c-1.4,0-2.5-1.1-2.5-2.5v-20.1c0-1.4,1.1-2.5,2.5-2.5s2.5,1.1,2.5,2.5v20.1
					C615.3,447.2,614.2,448.4,612.8,448.4z"/>
			</g>
		</g>
		<g>
			<rect x="341.5" y="602.5" class="st8" width="229.4" height="10"/>
			<path class="st3" d="M570.9,615H341.5c-1.4,0-2.5-1.1-2.5-2.5v-10c0-1.4,1.1-2.5,2.5-2.5h229.4c1.4,0,2.5,1.1,2.5,2.5v10
				C573.4,613.9,572.3,615,570.9,615z M344,610h224.4v-5H344V610z"/>
		</g>
		<path class="st3" d="M570.9,590H341.5c-1.4,0-2.5-1.1-2.5-2.5s1.1-2.5,2.5-2.5h229.4c1.4,0,2.5,1.1,2.5,2.5S572.3,590,570.9,590z"
			/>
		<g>
			<g>
				<path class="st3" d="M357.2,603.4c-0.4,0-0.7-0.1-1-0.4l-14.8-14.2c-0.6-0.6-0.6-1.5,0-2.1c0.6-0.6,1.5-0.6,2.1,0l14.8,14.2
					c0.6,0.6,0.6,1.5,0,2.1C358,603.3,357.6,603.4,357.2,603.4z"/>
				<path class="st3" d="M342.4,603.4c-0.4,0-0.8-0.2-1.1-0.5c-0.6-0.6-0.6-1.5,0-2.1l14.8-14.2c0.6-0.6,1.5-0.6,2.1,0
					c0.6,0.6,0.6,1.5,0,2.1L343.5,603C343.2,603.3,342.8,603.4,342.4,603.4z"/>
			</g>
			<g>
				<path class="st3" d="M371.4,603.4c-0.4,0-0.7-0.1-1-0.4l-14.8-14.2c-0.6-0.6-0.6-1.5,0-2.1c0.6-0.6,1.5-0.6,2.1,0l14.8,14.2
					c0.6,0.6,0.6,1.5,0,2.1C372.2,603.3,371.8,603.4,371.4,603.4z"/>
				<path class="st3" d="M356.6,603.4c-0.4,0-0.8-0.2-1.1-0.5c-0.6-0.6-0.6-1.5,0-2.1l14.8-14.2c0.6-0.6,1.5-0.6,2.1,0
					c0.6,0.6,0.6,1.5,0,2.1L357.7,603C357.4,603.3,357,603.4,356.6,603.4z"/>
			</g>
			<g>
				<path class="st3" d="M385.6,603.4c-0.4,0-0.7-0.1-1-0.4l-14.8-14.2c-0.6-0.6-0.6-1.5,0-2.1c0.6-0.6,1.5-0.6,2.1,0l14.8,14.2
					c0.6,0.6,0.6,1.5,0,2.1C386.4,603.3,386,603.4,385.6,603.4z"/>
				<path class="st3" d="M370.8,603.4c-0.4,0-0.8-0.2-1.1-0.5c-0.6-0.6-0.6-1.5,0-2.1l14.8-14.2c0.6-0.6,1.5-0.6,2.1,0
					c0.6,0.6,0.6,1.5,0,2.1L371.8,603C371.6,603.3,371.2,603.4,370.8,603.4z"/>
			</g>
			<g>
				<path class="st3" d="M399.8,603.4c-0.4,0-0.7-0.1-1-0.4L384,588.8c-0.6-0.6-0.6-1.5,0-2.1c0.6-0.6,1.5-0.6,2.1,0l14.8,14.2
					c0.6,0.6,0.6,1.5,0,2.1C400.6,603.3,400.2,603.4,399.8,603.4z"/>
				<path class="st3" d="M385,603.4c-0.4,0-0.8-0.2-1.1-0.5c-0.6-0.6-0.6-1.5,0-2.1l14.8-14.2c0.6-0.6,1.5-0.6,2.1,0
					c0.6,0.6,0.6,1.5,0,2.1L386,603C385.7,603.3,385.4,603.4,385,603.4z"/>
			</g>
			<g>
				<path class="st3" d="M414,603.4c-0.4,0-0.7-0.1-1-0.4l-14.8-14.2c-0.6-0.6-0.6-1.5,0-2.1c0.6-0.6,1.5-0.6,2.1,0l14.8,14.2
					c0.6,0.6,0.6,1.5,0,2.1C414.8,603.3,414.4,603.4,414,603.4z"/>
				<path class="st3" d="M399.2,603.4c-0.4,0-0.8-0.2-1.1-0.5c-0.6-0.6-0.6-1.5,0-2.1l14.8-14.2c0.6-0.6,1.5-0.6,2.1,0
					c0.6,0.6,0.6,1.5,0,2.1L400.2,603C399.9,603.3,399.6,603.4,399.2,603.4z"/>
			</g>
			<g>
				<path class="st3" d="M428.2,603.4c-0.4,0-0.7-0.1-1-0.4l-14.8-14.2c-0.6-0.6-0.6-1.5,0-2.1c0.6-0.6,1.5-0.6,2.1,0l14.8,14.2
					c0.6,0.6,0.6,1.5,0,2.1C429,603.3,428.6,603.4,428.2,603.4z"/>
				<path class="st3" d="M413.4,603.4c-0.4,0-0.8-0.2-1.1-0.5c-0.6-0.6-0.6-1.5,0-2.1l14.8-14.2c0.6-0.6,1.5-0.6,2.1,0
					c0.6,0.6,0.6,1.5,0,2.1L414.4,603C414.1,603.3,413.7,603.4,413.4,603.4z"/>
			</g>
			<g>
				<path class="st3" d="M442.4,603.4c-0.4,0-0.7-0.1-1-0.4l-14.8-14.2c-0.6-0.6-0.6-1.5,0-2.1c0.6-0.6,1.5-0.6,2.1,0l14.8,14.2
					c0.6,0.6,0.6,1.5,0,2.1C443.1,603.3,442.8,603.4,442.4,603.4z"/>
				<path class="st3" d="M427.5,603.4c-0.4,0-0.8-0.2-1.1-0.5c-0.6-0.6-0.6-1.5,0-2.1l14.8-14.2c0.6-0.6,1.5-0.6,2.1,0
					s0.6,1.5,0,2.1L428.6,603C428.3,603.3,427.9,603.4,427.5,603.4z"/>
			</g>
			<g>
				<path class="st3" d="M456.5,603.4c-0.4,0-0.7-0.1-1-0.4l-14.8-14.2c-0.6-0.6-0.6-1.5,0-2.1c0.6-0.6,1.5-0.6,2.1,0l14.8,14.2
					c0.6,0.6,0.6,1.5,0,2.1C457.3,603.3,456.9,603.4,456.5,603.4z"/>
				<path class="st3" d="M441.7,603.4c-0.4,0-0.8-0.2-1.1-0.5c-0.6-0.6-0.6-1.5,0-2.1l14.8-14.2c0.6-0.6,1.5-0.6,2.1,0
					c0.6,0.6,0.6,1.5,0,2.1L442.8,603C442.5,603.3,442.1,603.4,441.7,603.4z"/>
			</g>
			<g>
				<path class="st3" d="M470.7,603.4c-0.4,0-0.7-0.1-1-0.4l-14.8-14.2c-0.6-0.6-0.6-1.5,0-2.1c0.6-0.6,1.5-0.6,2.1,0l14.8,14.2
					c0.6,0.6,0.6,1.5,0,2.1C471.5,603.3,471.1,603.4,470.7,603.4z"/>
				<path class="st3" d="M455.9,603.4c-0.4,0-0.8-0.2-1.1-0.5c-0.6-0.6-0.6-1.5,0-2.1l14.8-14.2c0.6-0.6,1.5-0.6,2.1,0
					c0.6,0.6,0.6,1.5,0,2.1L457,603C456.7,603.3,456.3,603.4,455.9,603.4z"/>
			</g>
			<g>
				<path class="st3" d="M484.9,603.4c-0.4,0-0.7-0.1-1-0.4l-14.8-14.2c-0.6-0.6-0.6-1.5,0-2.1c0.6-0.6,1.5-0.6,2.1,0l14.8,14.2
					c0.6,0.6,0.6,1.5,0,2.1C485.7,603.3,485.3,603.4,484.9,603.4z"/>
				<path class="st3" d="M470.1,603.4c-0.4,0-0.8-0.2-1.1-0.5c-0.6-0.6-0.6-1.5,0-2.1l14.8-14.2c0.6-0.6,1.5-0.6,2.1,0
					c0.6,0.6,0.6,1.5,0,2.1L471.1,603C470.8,603.3,470.5,603.4,470.1,603.4z"/>
			</g>
			<g>
				<path class="st3" d="M499.1,603.4c-0.4,0-0.7-0.1-1-0.4l-14.8-14.2c-0.6-0.6-0.6-1.5,0-2.1c0.6-0.6,1.5-0.6,2.1,0l14.8,14.2
					c0.6,0.6,0.6,1.5,0,2.1C499.9,603.3,499.5,603.4,499.1,603.4z"/>
				<path class="st3" d="M484.3,603.4c-0.4,0-0.8-0.2-1.1-0.5c-0.6-0.6-0.6-1.5,0-2.1l14.8-14.2c0.6-0.6,1.5-0.6,2.1,0
					s0.6,1.5,0,2.1L485.3,603C485,603.3,484.7,603.4,484.3,603.4z"/>
			</g>
			<g>
				<path class="st3" d="M513.3,603.4c-0.4,0-0.7-0.1-1-0.4l-14.8-14.2c-0.6-0.6-0.6-1.5,0-2.1c0.6-0.6,1.5-0.6,2.1,0l14.8,14.2
					c0.6,0.6,0.6,1.5,0,2.1C514.1,603.3,513.7,603.4,513.3,603.4z"/>
				<path class="st3" d="M498.5,603.4c-0.4,0-0.8-0.2-1.1-0.5c-0.6-0.6-0.6-1.5,0-2.1l14.8-14.2c0.6-0.6,1.5-0.6,2.1,0
					s0.6,1.5,0,2.1L499.5,603C499.2,603.3,498.8,603.4,498.5,603.4z"/>
			</g>
			<g>
				<path class="st3" d="M527.5,603.4c-0.4,0-0.7-0.1-1-0.4l-14.8-14.2c-0.6-0.6-0.6-1.5,0-2.1c0.6-0.6,1.5-0.6,2.1,0l14.8,14.2
					c0.6,0.6,0.6,1.5,0,2.1C528.3,603.3,527.9,603.4,527.5,603.4z"/>
				<path class="st3" d="M512.7,603.4c-0.4,0-0.8-0.2-1.1-0.5c-0.6-0.6-0.6-1.5,0-2.1l14.8-14.2c0.6-0.6,1.5-0.6,2.1,0
					s0.6,1.5,0,2.1L513.7,603C513.4,603.3,513,603.4,512.7,603.4z"/>
			</g>
			<g>
				<path class="st3" d="M541.6,603.4c-0.4,0-0.7-0.1-1-0.4l-14.8-14.2c-0.6-0.6-0.6-1.5,0-2.1c0.6-0.6,1.5-0.6,2.1,0l14.8,14.2
					c0.6,0.6,0.6,1.5,0,2.1C542.4,603.3,542,603.4,541.6,603.4z"/>
				<path class="st3" d="M526.8,603.4c-0.4,0-0.8-0.2-1.1-0.5c-0.6-0.6-0.6-1.5,0-2.1l14.8-14.2c0.6-0.6,1.5-0.6,2.1,0
					c0.6,0.6,0.6,1.5,0,2.1L527.9,603C527.6,603.3,527.2,603.4,526.8,603.4z"/>
			</g>
			<g>
				<path class="st3" d="M555.8,603.4c-0.4,0-0.7-0.1-1-0.4L540,588.8c-0.6-0.6-0.6-1.5,0-2.1c0.6-0.6,1.5-0.6,2.1,0l14.8,14.2
					c0.6,0.6,0.6,1.5,0,2.1C556.6,603.3,556.2,603.4,555.8,603.4z"/>
				<path class="st3" d="M541,603.4c-0.4,0-0.8-0.2-1.1-0.5c-0.6-0.6-0.6-1.5,0-2.1l14.8-14.2c0.6-0.6,1.5-0.6,2.1,0
					c0.6,0.6,0.6,1.5,0,2.1L542.1,603C541.8,603.3,541.4,603.4,541,603.4z"/>
			</g>
			<g>
				<path class="st3" d="M570,603.4c-0.4,0-0.7-0.1-1-0.4l-14.8-14.2c-0.6-0.6-0.6-1.5,0-2.1c0.6-0.6,1.5-0.6,2.1,0l14.8,14.2
					c0.6,0.6,0.6,1.5,0,2.1C570.8,603.3,570.4,603.4,570,603.4z"/>
				<path class="st3" d="M555.2,603.4c-0.4,0-0.8-0.2-1.1-0.5c-0.6-0.6-0.6-1.5,0-2.1l14.8-14.2c0.6-0.6,1.5-0.6,2.1,0
					c0.6,0.6,0.6,1.5,0,2.1L556.2,603C556,603.3,555.6,603.4,555.2,603.4z"/>
			</g>
		</g>
		<g>
			<polygon class="st9" points="442.5,583.2 456.2,577.7 470,583.2 470,601.9 442.5,601.9 			"/>
			<path class="st3" d="M470,604.4h-27.5c-1.4,0-2.5-1.1-2.5-2.5v-18.7c0-1,0.6-1.9,1.6-2.3l13.7-5.5c0.6-0.2,1.3-0.2,1.9,0
				l13.7,5.5c0.9,0.4,1.6,1.3,1.6,2.3v18.7C472.5,603.3,471.3,604.4,470,604.4z M445,599.4h22.5v-14.5l-11.2-4.5l-11.2,4.5V599.4z"
				/>
		</g>
	</g>
	<g>
		<rect y="811" class="st12" width="1400" height="30.1"/>
		<rect y="841.1" class="st13" width="1400" height="138.9"/>
		<path class="st3" d="M1310.5,813.5H89.5c-1.4,0-2.5-1.1-2.5-2.5s1.1-2.5,2.5-2.5h1221.1c1.4,0,2.5,1.1,2.5,2.5
			S1311.9,813.5,1310.5,813.5z"/>
		<g>
			<path class="st3" d="M1363,843.6h-89c-1.4,0-2.5-1.1-2.5-2.5s1.1-2.5,2.5-2.5h89c1.4,0,2.5,1.1,2.5,2.5S1364.4,843.6,1363,843.6z
				"/>
			<path class="st3" d="M1248.5,843.6H649c-1.4,0-2.5-1.1-2.5-2.5s1.1-2.5,2.5-2.5h599.5c1.4,0,2.5,1.1,2.5,2.5
				S1249.9,843.6,1248.5,843.6z"/>
			<path class="st3" d="M621,843.6h-41c-1.4,0-2.5-1.1-2.5-2.5s1.1-2.5,2.5-2.5h41c1.4,0,2.5,1.1,2.5,2.5S622.4,843.6,621,843.6z"/>
			<path class="st3" d="M551,843.6H37c-1.4,0-2.5-1.1-2.5-2.5s1.1-2.5,2.5-2.5h514c1.4,0,2.5,1.1,2.5,2.5S552.4,843.6,551,843.6z"/>
		</g>
		<g>
			<path class="st14" d="M165.5,900.5h-86c-2.8,0-5-2.2-5-5s2.2-5,5-5h86c2.8,0,5,2.2,5,5S168.3,900.5,165.5,900.5z"/>
			<path class="st14" d="M330.5,900.5h-86c-2.8,0-5-2.2-5-5s2.2-5,5-5h86c2.8,0,5,2.2,5,5S333.3,900.5,330.5,900.5z"/>
			<path class="st14" d="M495.5,900.5h-86c-2.8,0-5-2.2-5-5s2.2-5,5-5h86c2.8,0,5,2.2,5,5S498.3,900.5,495.5,900.5z"/>
			<path class="st14" d="M660.5,900.5h-86c-2.8,0-5-2.2-5-5s2.2-5,5-5h86c2.8,0,5,2.2,5,5S663.3,900.5,660.5,900.5z"/>
			<path class="st14" d="M825.5,900.5h-86c-2.8,0-5-2.2-5-5s2.2-5,5-5h86c2.8,0,5,2.2,5,5S828.3,900.5,825.5,900.5z"/>
			<path class="st14" d="M990.5,900.5h-86c-2.8,0-5-2.2-5-5s2.2-5,5-5h86c2.8,0,5,2.2,5,5S993.3,900.5,990.5,900.5z"/>
			<path class="st14" d="M1155.5,900.5h-86c-2.8,0-5-2.2-5-5s2.2-5,5-5h86c2.8,0,5,2.2,5,5S1158.3,900.5,1155.5,900.5z"/>
			<path class="st14" d="M1320.5,900.5h-86c-2.8,0-5-2.2-5-5s2.2-5,5-5h86c2.8,0,5,2.2,5,5S1323.3,900.5,1320.5,900.5z"/>
		</g>
	</g>
	<g>
		<path class="st3" d="M1033.9,269h-49.4c-1.4,0-2.5-1.1-2.5-2.5s1.1-2.5,2.5-2.5h49.4c1.4,0,2.5,1.1,2.5,2.5S1035.3,269,1033.9,269
			z"/>
		<polygon class="st15" points="1009.2,214.1 908.5,811 1110,811 		"/>
		<polygon class="st16" points="955.5,811 1009.2,214.1 908.5,811 		"/>
		<polygon class="st17" points="1009.2,214.1 1063,811 1110,811 		"/>
		<path class="st3" d="M1110,813.5H908.5c-0.7,0-1.4-0.3-1.9-0.9c-0.5-0.6-0.7-1.3-0.6-2l100.7-596.9c0.2-1.2,1.2-2.1,2.5-2.1
			s2.3,0.9,2.5,2.1l100.7,596.9c0.1,0.7-0.1,1.5-0.6,2C1111.4,813.2,1110.7,813.5,1110,813.5z M911.5,808.5H1107l-97.8-579.4
			L911.5,808.5z"/>
		<path class="st3" d="M1009.2,814c-1.7,0-3-1.3-3-3V214.1c0-1.7,1.3-3,3-3s3,1.3,3,3V811C1012.2,812.7,1010.9,814,1009.2,814z"/>
		<polygon class="st18" points="1110,811 1036.5,214.1 1029.2,332.6 		"/>
		<path class="st3" d="M1110,813.5c-1.2,0-2.3-0.9-2.5-2.1L1026.8,333c0-0.2,0-0.4,0-0.6L1034,214c0.1-1.3,1.1-2.3,2.4-2.3
			c1.3,0,2.4,0.9,2.6,2.2l73.4,596.9c0.2,1.3-0.8,2.6-2.1,2.8C1110.2,813.5,1110.1,813.5,1110,813.5z M1031.7,332.5l62.1,368
			l-56.5-459.2L1031.7,332.5z"/>
		<polygon class="st16" points="908.5,811 981.9,214.1 989.2,332.6 		"/>
		<path class="st3" d="M908.5,813.5c-0.1,0-0.2,0-0.4,0c-1.3-0.2-2.3-1.4-2.1-2.8l73.4-596.9c0.2-1.3,1.2-2.2,2.5-2.2
			c0,0,0.1,0,0.1,0c1.3,0,2.3,1.1,2.4,2.3l7.3,118.5c0,0.2,0,0.4,0,0.6L911,811.4C910.8,812.6,909.7,813.5,908.5,813.5z
			 M981.1,241.3l-56.5,459.2l62.1-368L981.1,241.3z"/>
		<path class="st3" d="M1107.1,786H911c-0.8,0-1.5-0.7-1.5-1.5s0.7-1.5,1.5-1.5h196.1c0.8,0,1.5,0.7,1.5,1.5S1107.9,786,1107.1,786z
			"/>
		<path class="st3" d="M1101.8,763.9H916.4c-0.8,0-1.5-0.7-1.5-1.5s0.7-1.5,1.5-1.5h185.4c0.8,0,1.5,0.7,1.5,1.5
			S1102.6,763.9,1101.8,763.9z"/>
		<path class="st3" d="M1098,741.7H920.1c-0.8,0-1.5-0.7-1.5-1.5s0.7-1.5,1.5-1.5H1098c0.8,0,1.5,0.7,1.5,1.5
			S1098.8,741.7,1098,741.7z"/>
		<path class="st3" d="M1095.8,719.5H922.3c-0.8,0-1.5-0.7-1.5-1.5s0.7-1.5,1.5-1.5h173.4c0.8,0,1.5,0.7,1.5,1.5
			S1096.6,719.5,1095.8,719.5z"/>
		<path class="st3" d="M1092.8,697.3H925.3c-0.8,0-1.5-0.7-1.5-1.5s0.7-1.5,1.5-1.5h167.5c0.8,0,1.5,0.7,1.5,1.5
			S1093.6,697.3,1092.8,697.3z"/>
		<path class="st3" d="M1089.1,675.2h-160c-0.8,0-1.5-0.7-1.5-1.5s0.7-1.5,1.5-1.5h160c0.8,0,1.5,0.7,1.5,1.5
			S1089.9,675.2,1089.1,675.2z"/>
		<path class="st3" d="M1083,653h-148c-0.8,0-1.5-0.7-1.5-1.5s0.7-1.5,1.5-1.5h148c0.8,0,1.5,0.7,1.5,1.5S1083.9,653,1083,653z"/>
		<path class="st3" d="M1079.3,630.8H938.8c-0.8,0-1.5-0.7-1.5-1.5s0.7-1.5,1.5-1.5h140.5c0.8,0,1.5,0.7,1.5,1.5
			S1080.1,630.8,1079.3,630.8z"/>
		<path class="st3" d="M1075.6,608.7h-133c-0.8,0-1.5-0.7-1.5-1.5s0.7-1.5,1.5-1.5h133c0.8,0,1.5,0.7,1.5,1.5
			S1076.4,608.7,1075.6,608.7z"/>
		<path class="st3" d="M1073.4,586.5H944.7c-0.8,0-1.5-0.7-1.5-1.5s0.7-1.5,1.5-1.5h128.7c0.8,0,1.5,0.7,1.5,1.5
			S1074.3,586.5,1073.4,586.5z"/>
		<path class="st3" d="M1068.1,564.3h-118c-0.8,0-1.5-0.7-1.5-1.5s0.7-1.5,1.5-1.5h118c0.8,0,1.5,0.7,1.5,1.5
			S1068.9,564.3,1068.1,564.3z"/>
		<path class="st3" d="M1076.7,542.1H941.4c-0.8,0-1.5-0.7-1.5-1.5s0.7-1.5,1.5-1.5h135.3c0.8,0,1.5,0.7,1.5,1.5
			S1077.5,542.1,1076.7,542.1z"/>
		<path class="st3" d="M1060.6,520H957.5c-0.8,0-1.5-0.7-1.5-1.5s0.7-1.5,1.5-1.5h103.1c0.8,0,1.5,0.7,1.5,1.5
			S1061.4,520,1060.6,520z"/>
		<path class="st3" d="M1070.4,497.8H947.7c-0.8,0-1.5-0.7-1.5-1.5s0.7-1.5,1.5-1.5h122.8c0.8,0,1.5,0.7,1.5,1.5
			S1071.3,497.8,1070.4,497.8z"/>
		<path class="st3" d="M1070.4,475.6H947.7c-0.8,0-1.5-0.7-1.5-1.5s0.7-1.5,1.5-1.5h122.8c0.8,0,1.5,0.7,1.5,1.5
			S1071.3,475.6,1070.4,475.6z"/>
		<path class="st3" d="M1065.8,453.4H952.3c-0.8,0-1.5-0.7-1.5-1.5s0.7-1.5,1.5-1.5h113.5c0.8,0,1.5,0.7,1.5,1.5
			S1066.6,453.4,1065.8,453.4z"/>
		<path class="st3" d="M1064.1,431.3H954c-0.8,0-1.5-0.7-1.5-1.5s0.7-1.5,1.5-1.5h110.1c0.8,0,1.5,0.7,1.5,1.5
			S1064.9,431.3,1064.1,431.3z"/>
		<path class="st3" d="M1060.6,409.1H957.5c-0.8,0-1.5-0.7-1.5-1.5s0.7-1.5,1.5-1.5h103.1c0.8,0,1.5,0.7,1.5,1.5
			S1061.4,409.1,1060.6,409.1z"/>
		<path class="st3" d="M1059.6,386.9H958.5c-0.8,0-1.5-0.7-1.5-1.5s0.7-1.5,1.5-1.5h101.1c0.8,0,1.5,0.7,1.5,1.5
			S1060.4,386.9,1059.6,386.9z"/>
		<path class="st3" d="M1054.9,364.7h-91.6c-0.8,0-1.5-0.7-1.5-1.5s0.7-1.5,1.5-1.5h91.6c0.8,0,1.5,0.7,1.5,1.5
			S1055.7,364.7,1054.9,364.7z"/>
		<path class="st3" d="M1052.2,342.6H966c-0.8,0-1.5-0.7-1.5-1.5s0.7-1.5,1.5-1.5h86.2c0.8,0,1.5,0.7,1.5,1.5
			S1053,342.6,1052.2,342.6z"/>
		<path class="st3" d="M1050.3,320.4h-82.5c-0.8,0-1.5-0.7-1.5-1.5s0.7-1.5,1.5-1.5h82.5c0.8,0,1.5,0.7,1.5,1.5
			S1051.2,320.4,1050.3,320.4z"/>
		<path class="st3" d="M1046.7,298.2h-75.3c-0.8,0-1.5-0.7-1.5-1.5s0.7-1.5,1.5-1.5h75.3c0.8,0,1.5,0.7,1.5,1.5
			S1047.5,298.2,1046.7,298.2z"/>
	</g>
	<g>
		<g>
			<path class="st14" d="M1273.9,293.9c-1.6,0-3.2,0.2-4.7,0.4c-6.9-20.6-26.4-35.4-49.3-35.4c-19.5,0-36.4,10.7-45.4,26.6
				c-2-0.4-4-0.6-6.1-0.6c-18.8,0-34,15.2-34,34h164.5C1298.9,305.1,1287.7,293.9,1273.9,293.9z"/>
			<path class="st3" d="M1244.4,321.4h-18c-1.4,0-2.5-1.1-2.5-2.5s1.1-2.5,2.5-2.5h18c1.4,0,2.5,1.1,2.5,2.5
				S1245.8,321.4,1244.4,321.4z"/>
			<path class="st3" d="M1298.9,321.4h-35c-1.4,0-2.5-1.1-2.5-2.5s1.1-2.5,2.5-2.5h32.4c-1.2-11.2-10.8-20-22.4-20
				c-1.4,0-2.8,0.1-4.2,0.4c-1.2,0.2-2.4-0.5-2.8-1.7c-6.8-20.2-25.6-33.7-46.9-33.7c-17.9,0-34.4,9.7-43.2,25.3
				c-0.5,0.9-1.6,1.4-2.6,1.2c-1.9-0.3-3.8-0.5-5.7-0.5c-16.5,0-30.1,12.8-31.4,29h67.9c1.4,0,2.5,1.1,2.5,2.5s-1.1,2.5-2.5,2.5
				h-70.5c-1.4,0-2.5-1.1-2.5-2.5c0-20.1,16.4-36.5,36.5-36.5c1.6,0,3.2,0.1,4.9,0.3c9.9-16.3,27.6-26.3,46.6-26.3
				c22.7,0,43,14,51,35.2c1-0.1,2-0.2,3-0.2c15.2,0,27.5,12.3,27.5,27.5C1301.4,320.3,1300.3,321.4,1298.9,321.4z"/>
		</g>
		<g>
			<path class="st14" d="M681.6,129.7c-1.6,0-3.2,0.2-4.7,0.4c-6.9-20.6-26.4-35.4-49.3-35.4c-19.5,0-36.4,10.7-45.4,26.6
				c-2-0.4-4-0.6-6.1-0.6c-18.8,0-34,15.2-34,34h164.5C706.6,140.9,695.4,129.7,681.6,129.7z"/>
			<path class="st3" d="M652.1,157.2h-43.6c-1.4,0-2.5-1.1-2.5-2.5s1.1-2.5,2.5-2.5h43.6c1.4,0,2.5,1.1,2.5,2.5
				S653.5,157.2,652.1,157.2z"/>
			<path class="st3" d="M612.6,157.2h-70.5c-1.4,0-2.5-1.1-2.5-2.5c0-20.1,16.4-36.5,36.5-36.5c1.6,0,3.2,0.1,4.9,0.3
				c9.9-16.3,27.6-26.3,46.6-26.3c13.1,0,25.8,4.7,35.6,13.3c1,0.9,1.2,2.5,0.3,3.5c-0.9,1-2.5,1.2-3.5,0.3
				c-9-7.8-20.5-12.1-32.4-12.1c-17.9,0-34.4,9.7-43.2,25.3c-0.5,0.9-1.6,1.4-2.6,1.2c-1.9-0.3-3.8-0.5-5.7-0.5
				c-16.5,0-30.1,12.8-31.4,29h67.9c1.4,0,2.5,1.1,2.5,2.5S614,157.2,612.6,157.2z"/>
			<path class="st3" d="M706.6,157.2h-35c-1.4,0-2.5-1.1-2.5-2.5s1.1-2.5,2.5-2.5H704c-1.2-11.2-10.8-20-22.4-20
				c-1.4,0-2.8,0.1-4.2,0.4c-1.2,0.2-2.4-0.5-2.8-1.7c-1.4-4.2-3.4-8.2-5.9-11.9c-0.8-1.1-0.5-2.7,0.7-3.5c1.1-0.8,2.7-0.5,3.5,0.7
				c2.3,3.5,4.3,7.2,5.7,11.1c1-0.1,2-0.2,3-0.2c15.2,0,27.5,12.3,27.5,27.5C709.1,156.1,708,157.2,706.6,157.2z"/>
		</g>
		<g>
			<path class="st14" d="M301.8,288.9c-1.6,0-3.2,0.2-4.7,0.4c-6.9-20.6-26.4-35.4-49.3-35.4c-19.5,0-36.4,10.7-45.4,26.6
				c-2-0.4-4-0.6-6.1-0.6c-18.8,0-34,15.2-34,34h164.5C326.8,300.1,315.6,288.9,301.8,288.9z"/>
			<path class="st3" d="M252.8,316.4h-90.5c-1.4,0-2.5-1.1-2.5-2.5c0-5.1,1-10.1,3.1-14.8c0.6-1.3,2-1.8,3.3-1.3
				c1.3,0.6,1.8,2,1.3,3.3c-1.4,3.3-2.3,6.7-2.6,10.2h87.9c1.4,0,2.5,1.1,2.5,2.5S254.1,316.4,252.8,316.4z"/>
			<path class="st3" d="M326.8,316.4h-56.5c-1.4,0-2.5-1.1-2.5-2.5s1.1-2.5,2.5-2.5h53.9c-1.2-11.2-10.8-20-22.4-20
				c-1.4,0-2.8,0.1-4.2,0.4c-1.2,0.2-2.4-0.5-2.8-1.7c-6.8-20.2-25.6-33.7-46.9-33.7c-17.9,0-34.4,9.7-43.2,25.3
				c-0.5,0.9-1.6,1.4-2.6,1.2c-7.2-1.3-14.4-0.1-20.5,3.2c-1.2,0.6-2.7,0.2-3.4-1c-0.7-1.2-0.2-2.7,1-3.4c5.3-2.8,11.2-4.3,17.2-4.3
				c1.6,0,3.2,0.1,4.9,0.3c9.9-16.3,27.6-26.3,46.6-26.3c22.7,0,43,14,51,35.2c1-0.1,2-0.2,3-0.2c15.2,0,27.5,12.3,27.5,27.5
				C329.3,315.3,328.1,316.4,326.8,316.4z"/>
		</g>
	</g>
	<g>
		<g>
			<circle class="st13" cx="270.3" cy="911" r="16.5"/>
			<circle class="st3" cx="270.3" cy="911" r="7.1"/>
			<path class="st3" d="M270.3,930c-10.5,0-19-8.5-19-19s8.5-19,19-19c10.5,0,19,8.5,19,19S280.8,930,270.3,930z M270.3,897
				c-7.7,0-14,6.3-14,14s6.3,14,14,14s14-6.3,14-14S278.1,897,270.3,897z"/>
		</g>
		<g>
			<circle class="st13" cx="437.3" cy="911" r="16.5"/>
			<circle class="st3" cx="437.3" cy="911" r="7.1"/>
			<path class="st3" d="M437.3,930c-10.5,0-19-8.5-19-19s8.5-19,19-19c10.5,0,19,8.5,19,19S447.7,930,437.3,930z M437.3,897
				c-7.7,0-14,6.3-14,14s6.3,14,14,14s14-6.3,14-14S445,897,437.3,897z"/>
		</g>
		<path class="st19" d="M461.5,779.5c-3.2-10.9-13.1-18.3-24.5-18.3H225.2c-9.1,0-17,6.4-18.9,15.2l-11.5,45.3V911h46.8
			c0-15.9,12.9-28.7,28.7-28.7S299,895.1,299,911h109.5c0-15.9,12.9-28.7,28.7-28.7c15.9,0,28.7,12.9,28.7,28.7h10.2v-89.3
			L461.5,779.5z"/>
		<path class="st20" d="M194.8,876.4V911h46.8c0-15.9,12.9-28.7,28.7-28.7S299,895.1,299,911h109.5c0-15.9,12.9-28.7,28.7-28.7
			c15.9,0,28.7,12.9,28.7,28.7h10.2v-34.6H194.8z"/>
		<rect x="194.8" y="825.2" class="st21" width="281.6" height="6.8"/>
		<path class="st3" d="M476.2,913.5H466c-1.4,0-2.5-1.1-2.5-2.5c0-14.4-11.8-26.2-26.2-26.2s-26.2,11.8-26.2,26.2
			c0,1.4-1.1,2.5-2.5,2.5H299c-1.4,0-2.5-1.1-2.5-2.5c0-14.4-11.8-26.2-26.2-26.2s-26.2,11.8-26.2,26.2c0,1.4-1.1,2.5-2.5,2.5h-46.8
			c-1.4,0-2.5-1.1-2.5-2.5v-89.3c0-0.2,0-0.4,0.1-0.6l11.5-45.3c2.1-9.9,11.1-17.1,21.3-17.1H437c12.3,0,23.4,8.3,26.8,20.1
			l14.7,42.1c0.1,0.3,0.1,0.5,0.1,0.8V911C478.7,912.3,477.6,913.5,476.2,913.5z M468.4,908.5h5.3v-86.3l-14.6-41.8c0,0,0-0.1,0-0.1
			c-2.8-9.7-11.9-16.5-22.1-16.5H225.2c-7.9,0-14.8,5.6-16.4,13.3L197.3,822v86.5h41.9c1.3-16,14.7-28.7,31.1-28.7
			c16.4,0,29.8,12.7,31.1,28.7h104.7c1.3-16,14.7-28.7,31.1-28.7C453.6,879.8,467.1,892.4,468.4,908.5z"/>
		<rect x="263.3" y="843.1" class="st22" width="36" height="21.8"/>
		<rect x="320.8" y="843.1" class="st22" width="36" height="21.8"/>
		<rect x="378.3" y="843.1" class="st22" width="36" height="21.8"/>
		<rect x="437.5" y="836.6" class="st22" width="38.9" height="28.3"/>
		<path class="st3" d="M299.3,867.5h-36c-1.4,0-2.5-1.1-2.5-2.5v-21.8c0-1.4,1.1-2.5,2.5-2.5h36c1.4,0,2.5,1.1,2.5,2.5V865
			C301.8,866.3,300.6,867.5,299.3,867.5z M265.8,862.5h31v-16.8h-31V862.5z"/>
		<path class="st3" d="M356.8,867.5h-36c-1.4,0-2.5-1.1-2.5-2.5v-21.8c0-1.4,1.1-2.5,2.5-2.5h36c1.4,0,2.5,1.1,2.5,2.5V865
			C359.3,866.3,358.1,867.5,356.8,867.5z M323.3,862.5h31v-16.8h-31V862.5z"/>
		<path class="st3" d="M414.3,867.5h-36c-1.4,0-2.5-1.1-2.5-2.5v-21.8c0-1.4,1.1-2.5,2.5-2.5h36c1.4,0,2.5,1.1,2.5,2.5V865
			C416.8,866.3,415.6,867.5,414.3,867.5z M380.8,862.5h31v-16.8h-31V862.5z"/>
		<path class="st3" d="M476.5,867.5h-38.9c-1.4,0-2.5-1.1-2.5-2.5v-28.3c0-1.4,1.1-2.5,2.5-2.5h38.9c1.4,0,2.5,1.1,2.5,2.5V865
			C479,866.3,477.8,867.5,476.5,867.5z M440,862.5H474v-23.3H440V862.5z"/>
		<g>
			<g>
				<rect x="342.4" y="776.5" class="st22" width="42.4" height="35.8"/>
				<path class="st22" d="M456.7,812.3l-9.8-28.1l-0.1-0.4c-1.3-4.3-5.3-7.3-9.7-7.3h-38.5v35.8H456.7z"/>
				<rect x="286.2" y="776.5" class="st22" width="42.4" height="35.8"/>
				<path class="st22" d="M272.6,812.3v-35.8h-47.4c-1.8,0-3.5,1.3-3.9,3.1l-0.1,0.3l-8.2,32.4H272.6z"/>
			</g>
		</g>
		<g>
			<path class="st3" d="M384.8,814.8h-42.4c-1.4,0-2.5-1.1-2.5-2.5v-35.8c0-1.4,1.1-2.5,2.5-2.5h42.4c1.4,0,2.5,1.1,2.5,2.5v35.8
				C387.3,813.7,386.2,814.8,384.8,814.8z M344.9,809.8h37.4V779h-37.4V809.8z"/>
			<path class="st3" d="M456.7,814.8h-58.2c-1.4,0-2.5-1.1-2.5-2.5v-35.8c0-1.4,1.1-2.5,2.5-2.5H437c5.6,0,10.6,3.7,12.1,9.1
				l0.1,0.3l9.8,28c0.3,0.8,0.1,1.6-0.3,2.3C458.2,814.4,457.5,814.8,456.7,814.8z M401,809.8h52.2l-8.6-24.8c0,0,0-0.1,0-0.1
				l-0.1-0.4c-0.9-3.2-4-5.5-7.3-5.5h-36V809.8z"/>
			<path class="st3" d="M328.7,814.8h-42.4c-1.4,0-2.5-1.1-2.5-2.5v-35.8c0-1.4,1.1-2.5,2.5-2.5h42.4c1.4,0,2.5,1.1,2.5,2.5v35.8
				C331.2,813.7,330.1,814.8,328.7,814.8z M288.7,809.8h37.4V779h-37.4V809.8z"/>
			<path class="st3" d="M272.6,814.8H213c-0.8,0-1.5-0.4-2-1c-0.5-0.6-0.6-1.4-0.5-2.1l8.2-32.6c0.6-3,3.3-5.1,6.3-5.1h47.4
				c1.4,0,2.5,1.1,2.5,2.5v35.8C275.1,813.7,273.9,814.8,272.6,814.8z M216.3,809.8h53.8V779h-44.9c-0.7,0-1.3,0.5-1.4,1.1l-0.1,0.3
				L216.3,809.8z"/>
		</g>
	</g>
	<g>
		<g>
			<g>
				<g>
					<rect x="754.8" y="463" class="st23" width="129.7" height="129.7"/>
					<path class="st3" d="M884.4,595.2H754.8c-1.4,0-2.5-1.1-2.5-2.5V463c0-1.4,1.1-2.5,2.5-2.5h129.7c1.4,0,2.5,1.1,2.5,2.5v129.7
						C886.9,594.1,885.8,595.2,884.4,595.2z M757.3,590.2h124.7V465.5H757.3V590.2z"/>
					<path class="st3" d="M871.8,581.6H767.4c-0.8,0-1.5-0.7-1.5-1.5V475.7c0-0.8,0.7-1.5,1.5-1.5h104.4c0.8,0,1.5,0.7,1.5,1.5
						v104.4C873.3,580.9,872.6,581.6,871.8,581.6z M768.9,578.6h101.4V477.2H768.9V578.6z"/>
					<circle class="st24" cx="821.5" cy="534.6" r="35.9"/>
					<circle class="st16" cx="819.6" cy="527.9" r="35.9"/>
					<path class="st3" d="M819.6,566.3c-21.2,0-38.4-17.2-38.4-38.4s17.2-38.4,38.4-38.4s38.4,17.2,38.4,38.4
						S840.7,566.3,819.6,566.3z M819.6,494.5c-18.4,0-33.4,15-33.4,33.4s15,33.4,33.4,33.4s33.4-15,33.4-33.4S838,494.5,819.6,494.5
						z"/>
					<path class="st3" d="M819.6,530.4h-14.7c-1.4,0-2.5-1.1-2.5-2.5s1.1-2.5,2.5-2.5h12.2v-22.2c0-1.4,1.1-2.5,2.5-2.5
						s2.5,1.1,2.5,2.5v24.7C822.1,529.3,821,530.4,819.6,530.4z"/>
				</g>
				<path class="st3" d="M884.4,465.5c-1.4,0-2.5-1.1-2.5-2.5v-28.1c0-1.4,1.1-2.5,2.5-2.5s2.5,1.1,2.5,2.5V463
					C886.9,464.4,885.8,465.5,884.4,465.5z"/>
				<path class="st3" d="M754.8,465.5c-1.4,0-2.5-1.1-2.5-2.5v-28.1c0-1.4,1.1-2.5,2.5-2.5s2.5,1.1,2.5,2.5V463
					C757.3,464.4,756.1,465.5,754.8,465.5z"/>
			</g>
			<rect x="772.5" y="426.5" class="st23" width="94.2" height="36.5"/>
			<g>
				<path class="st24" d="M794.5,440.5c-2.5,0-4.6,2.1-4.6,4.6v15.8h9.2v-15.8C799.1,442.6,797,440.5,794.5,440.5z"/>
				<path class="st24" d="M819.6,440.5c-2.5,0-4.6,2.1-4.6,4.6v15.8h9.2v-15.8C824.2,442.6,822.1,440.5,819.6,440.5z"/>
				<path class="st24" d="M844.7,440.5c-2.5,0-4.6,2.1-4.6,4.6v15.8h9.2v-15.8C849.2,442.6,847.2,440.5,844.7,440.5z"/>
			</g>
			<path class="st3" d="M866.7,465.5h-94.2c-1.4,0-2.5-1.1-2.5-2.5v-36.5c0-1.4,1.1-2.5,2.5-2.5h94.2c1.4,0,2.5,1.1,2.5,2.5V463
				C869.2,464.4,868.1,465.5,866.7,465.5z M775,460.5h89.2V429H775V460.5z"/>
			<polygon class="st4" points="866.7,426.5 772.5,426.5 788.4,405 850.8,405 			"/>
			<polygon class="st25" points="850.8,405 837.2,405 846.1,426.5 866.7,426.5 			"/>
			<polygon class="st26" points="788.4,405 772.5,426.5 793.1,426.5 802,405 			"/>
			<path class="st3" d="M866.7,429h-94.2c-0.9,0-1.8-0.5-2.2-1.4s-0.3-1.9,0.2-2.6l15.9-21.5c0.5-0.6,1.2-1,2-1h62.4
				c0.8,0,1.5,0.4,2,1l15.9,21.5c0.6,0.8,0.6,1.8,0.2,2.6S867.6,429,866.7,429z M777.4,424h84.3l-12.2-16.5h-59.9L777.4,424z"/>
			<rect x="788.4" y="386" class="st23" width="62.4" height="19.1"/>
			<rect x="788.4" y="386" class="st27" width="13.6" height="19.1"/>
			<rect x="837.2" y="386" class="st24" width="13.6" height="19.1"/>
			<path class="st3" d="M850.8,407.5h-62.4c-1.4,0-2.5-1.1-2.5-2.5V386c0-1.4,1.1-2.5,2.5-2.5h62.4c1.4,0,2.5,1.1,2.5,2.5V405
				C853.3,406.4,852.2,407.5,850.8,407.5z M790.9,402.5h57.4v-14.1h-57.4V402.5z"/>
			<polygon class="st4" points="850.8,386 788.4,386 819.6,317.1 			"/>
			<polygon class="st26" points="807.4,386 819.6,317.1 788.4,386 			"/>
			<polygon class="st25" points="819.6,317.1 831.8,386 850.8,386 			"/>
			<path class="st3" d="M850.8,388.5h-62.4c-0.8,0-1.6-0.4-2.1-1.1c-0.5-0.7-0.5-1.6-0.2-2.4l31.2-68.9c0.4-0.9,1.3-1.5,2.3-1.5
				s1.9,0.6,2.3,1.5l31.2,68.9c0.4,0.8,0.3,1.7-0.2,2.4C852.4,388,851.6,388.5,850.8,388.5z M792.3,383.5h54.6l-27.3-60.3
				L792.3,383.5z"/>
			<path class="st3" d="M819.6,319.6c-1.4,0-2.5-1.1-2.5-2.5v-28.1c0-1.4,1.1-2.5,2.5-2.5s2.5,1.1,2.5,2.5v28.1
				C822.1,318.4,821,319.6,819.6,319.6z"/>
			<path class="st3" d="M866.7,429c-1.4,0-2.5-1.1-2.5-2.5v-27.1c0-1.4,1.1-2.5,2.5-2.5s2.5,1.1,2.5,2.5v27.1
				C869.2,427.9,868.1,429,866.7,429z"/>
			<path class="st3" d="M772.5,429c-1.4,0-2.5-1.1-2.5-2.5v-27.1c0-1.4,1.1-2.5,2.5-2.5s2.5,1.1,2.5,2.5v27.1
				C775,427.9,773.9,429,772.5,429z"/>
			<g>
				<path class="st3" d="M850.8,388.5c-1.4,0-2.5-1.1-2.5-2.5v-29c0-1.4,1.1-2.5,2.5-2.5s2.5,1.1,2.5,2.5v29
					C853.3,387.4,852.2,388.5,850.8,388.5z"/>
				<path class="st3" d="M788.4,388.5c-1.4,0-2.5-1.1-2.5-2.5v-29c0-1.4,1.1-2.5,2.5-2.5s2.5,1.1,2.5,2.5v29
					C790.9,387.4,789.8,388.5,788.4,388.5z"/>
			</g>
		</g>
		<rect x="764.6" y="592.7" class="st23" width="110.1" height="217.6"/>
		<rect x="859.2" y="592.7" class="st24" width="15.4" height="217.6"/>
		<rect x="764.6" y="592.7" class="st27" width="16.5" height="217.6"/>
		<rect x="764.6" y="592.7" class="st24" width="110.1" height="13.4"/>
		<path class="st3" d="M874.6,812.8H764.6c-1.4,0-2.5-1.1-2.5-2.5V592.7c0-1.4,1.1-2.5,2.5-2.5h110.1c1.4,0,2.5,1.1,2.5,2.5v217.6
			C877.1,811.7,876,812.8,874.6,812.8z M767.1,807.8h105.1V595.2H767.1V807.8z"/>
		<path class="st3" d="M858.3,811.8h-77.4c-0.8,0-1.5-0.7-1.5-1.5V592.7c0-0.8,0.7-1.5,1.5-1.5h77.4c0.8,0,1.5,0.7,1.5,1.5v217.6
			C859.8,811.2,859.1,811.8,858.3,811.8z M782.4,808.8h74.4V594.2h-74.4V808.8z"/>
		<g>
			<path class="st24" d="M795.5,612c-2.1,0-3.9,1.7-3.9,3.9v44.6h7.7v-44.6C799.4,613.7,797.6,612,795.5,612z"/>
			<path class="st24" d="M811.6,612c-2.1,0-3.9,1.7-3.9,3.9v44.6h7.7v-44.6C815.4,613.7,813.7,612,811.6,612z"/>
			<path class="st24" d="M827.6,612c-2.1,0-3.9,1.7-3.9,3.9v44.6h7.7v-44.6C831.5,613.7,829.7,612,827.6,612z"/>
			<path class="st24" d="M843.7,612c-2.1,0-3.9,1.7-3.9,3.9v44.6h7.7v-44.6C847.5,613.7,845.8,612,843.7,612z"/>
		</g>
		<g>
			<path class="st24" d="M795.5,678.2c-2.1,0-3.9,1.7-3.9,3.9v44.6h7.7v-44.6C799.4,679.9,797.6,678.2,795.5,678.2z"/>
			<path class="st24" d="M811.6,678.2c-2.1,0-3.9,1.7-3.9,3.9v44.6h7.7v-44.6C815.4,679.9,813.7,678.2,811.6,678.2z"/>
			<path class="st24" d="M827.6,678.2c-2.1,0-3.9,1.7-3.9,3.9v44.6h7.7v-44.6C831.5,679.9,829.7,678.2,827.6,678.2z"/>
			<path class="st24" d="M843.7,678.2c-2.1,0-3.9,1.7-3.9,3.9v44.6h7.7v-44.6C847.5,679.9,845.8,678.2,843.7,678.2z"/>
		</g>
		<g>
			<path class="st24" d="M795.5,744.4c-2.1,0-3.9,1.7-3.9,3.9v44.6h7.7v-44.6C799.4,746.2,797.6,744.4,795.5,744.4z"/>
			<path class="st24" d="M811.6,744.4c-2.1,0-3.9,1.7-3.9,3.9v44.6h7.7v-44.6C815.4,746.2,813.7,744.4,811.6,744.4z"/>
			<path class="st24" d="M827.6,744.4c-2.1,0-3.9,1.7-3.9,3.9v44.6h7.7v-44.6C831.5,746.2,829.7,744.4,827.6,744.4z"/>
			<path class="st24" d="M843.7,744.4c-2.1,0-3.9,1.7-3.9,3.9v44.6h7.7v-44.6C847.5,746.2,845.8,744.4,843.7,744.4z"/>
		</g>
		<g>
			<path class="st3" d="M875.5,670.9H763.7c-0.8,0-1.5-0.7-1.5-1.5s0.7-1.5,1.5-1.5h111.9c0.8,0,1.5,0.7,1.5,1.5
				S876.3,670.9,875.5,670.9z"/>
			<path class="st3" d="M875.5,735.2H763.7c-0.8,0-1.5-0.7-1.5-1.5s0.7-1.5,1.5-1.5h111.9c0.8,0,1.5,0.7,1.5,1.5
				S876.3,735.2,875.5,735.2z"/>
		</g>
	</g>
	<g>
		<g>
			<path class="st3" d="M1245.2,787c-1.4,0-2.5-1.1-2.5-2.5v-78.6c0-1.4,1.1-2.5,2.5-2.5s2.5,1.1,2.5,2.5v78.6
				C1247.7,785.8,1246.6,787,1245.2,787z"/>
			<rect x="1238.7" y="784.5" class="st13" width="13.1" height="11.4"/>
			<path class="st3" d="M1251.7,798.3h-13.1c-1.4,0-2.5-1.1-2.5-2.5v-11.4c0-1.4,1.1-2.5,2.5-2.5h13.1c1.4,0,2.5,1.1,2.5,2.5v11.4
				C1254.2,797.2,1253.1,798.3,1251.7,798.3z M1241.2,793.3h8.1V787h-8.1V793.3z"/>
			<rect x="1234.7" y="795.8" class="st13" width="21" height="27.9"/>
			<path class="st3" d="M1255.7,826.2h-21c-1.4,0-2.5-1.1-2.5-2.5v-27.9c0-1.4,1.1-2.5,2.5-2.5h21c1.4,0,2.5,1.1,2.5,2.5v27.9
				C1258.2,825.1,1257.1,826.2,1255.7,826.2z M1237.2,821.2h16v-22.9h-16V821.2z"/>
			<g>
				<polygon class="st28" points="1232.7,665.5 1234.7,705.9 1255.7,705.9 1257.7,665.5 				"/>
				<path class="st3" d="M1255.7,708.4h-21c-1.3,0-2.4-1-2.5-2.4l-2-40.4c0-0.7,0.2-1.4,0.7-1.8c0.5-0.5,1.1-0.8,1.8-0.8h25
					c0.7,0,1.3,0.3,1.8,0.8c0.5,0.5,0.7,1.2,0.7,1.8l-2,40.4C1258.2,707.4,1257.1,708.4,1255.7,708.4z M1237.1,703.4h16.3l1.7-35.4
					h-19.8L1237.1,703.4z"/>
				<path class="st3" d="M1245.2,668c-1.4,0-2.5-1.1-2.5-2.5v-9.8c0-1.4,1.1-2.5,2.5-2.5s2.5,1.1,2.5,2.5v9.8
					C1247.7,666.9,1246.6,668,1245.2,668z"/>
				<circle class="st14" cx="1241.9" cy="674.5" r="3.3"/>
			</g>
		</g>
		<g>
			<path class="st3" d="M700,787c-1.4,0-2.5-1.1-2.5-2.5v-78.6c0-1.4,1.1-2.5,2.5-2.5s2.5,1.1,2.5,2.5v78.6
				C702.5,785.8,701.4,787,700,787z"/>
			<rect x="693.5" y="784.5" class="st13" width="13.1" height="11.4"/>
			<path class="st3" d="M706.5,798.3h-13.1c-1.4,0-2.5-1.1-2.5-2.5v-11.4c0-1.4,1.1-2.5,2.5-2.5h13.1c1.4,0,2.5,1.1,2.5,2.5v11.4
				C709,797.2,707.9,798.3,706.5,798.3z M696,793.3h8.1V787H696V793.3z"/>
			<rect x="689.5" y="795.8" class="st13" width="21" height="27.9"/>
			<path class="st3" d="M710.5,826.2h-21c-1.4,0-2.5-1.1-2.5-2.5v-27.9c0-1.4,1.1-2.5,2.5-2.5h21c1.4,0,2.5,1.1,2.5,2.5v27.9
				C713,825.1,711.9,826.2,710.5,826.2z M692,821.2h16v-22.9h-16V821.2z"/>
			<g>
				<polygon class="st28" points="687.5,665.5 689.5,705.9 710.5,705.9 712.5,665.5 				"/>
				<path class="st3" d="M710.5,708.4h-21c-1.3,0-2.4-1-2.5-2.4l-2-40.4c0-0.7,0.2-1.4,0.7-1.8c0.5-0.5,1.1-0.8,1.8-0.8h25
					c0.7,0,1.3,0.3,1.8,0.8c0.5,0.5,0.7,1.2,0.7,1.8l-2,40.4C713,707.4,711.9,708.4,710.5,708.4z M691.9,703.4h16.3l1.7-35.4h-19.8
					L691.9,703.4z"/>
				<path class="st3" d="M700,668c-1.4,0-2.5-1.1-2.5-2.5v-9.8c0-1.4,1.1-2.5,2.5-2.5s2.5,1.1,2.5,2.5v9.8
					C702.5,666.9,701.4,668,700,668z"/>
				<circle class="st14" cx="696.7" cy="674.5" r="3.3"/>
			</g>
		</g>
		<g>
			<path class="st3" d="M154.8,787c-1.4,0-2.5-1.1-2.5-2.5v-78.6c0-1.4,1.1-2.5,2.5-2.5s2.5,1.1,2.5,2.5v78.6
				C157.3,785.8,156.2,787,154.8,787z"/>
			<rect x="148.3" y="784.5" class="st13" width="13.1" height="11.4"/>
			<path class="st3" d="M161.3,798.3h-13.1c-1.4,0-2.5-1.1-2.5-2.5v-11.4c0-1.4,1.1-2.5,2.5-2.5h13.1c1.4,0,2.5,1.1,2.5,2.5v11.4
				C163.8,797.2,162.7,798.3,161.3,798.3z M150.8,793.3h8.1V787h-8.1V793.3z"/>
			<rect x="144.3" y="795.8" class="st13" width="21" height="27.9"/>
			<path class="st3" d="M165.3,826.2h-21c-1.4,0-2.5-1.1-2.5-2.5v-27.9c0-1.4,1.1-2.5,2.5-2.5h21c1.4,0,2.5,1.1,2.5,2.5v27.9
				C167.8,825.1,166.7,826.2,165.3,826.2z M146.8,821.2h16v-22.9h-16V821.2z"/>
			<g>
				<polygon class="st28" points="142.3,665.5 144.3,705.9 165.3,705.9 167.3,665.5 				"/>
				<path class="st3" d="M165.3,708.4h-21c-1.3,0-2.4-1-2.5-2.4l-2-40.4c0-0.7,0.2-1.4,0.7-1.8c0.5-0.5,1.1-0.8,1.8-0.8h25
					c0.7,0,1.3,0.3,1.8,0.8c0.5,0.5,0.7,1.2,0.7,1.8l-2,40.4C167.8,707.4,166.7,708.4,165.3,708.4z M146.7,703.4h16.3l1.7-35.4
					h-19.8L146.7,703.4z"/>
				<path class="st3" d="M154.8,668c-1.4,0-2.5-1.1-2.5-2.5v-9.8c0-1.4,1.1-2.5,2.5-2.5s2.5,1.1,2.5,2.5v9.8
					C157.3,666.9,156.2,668,154.8,668z"/>
				<circle class="st14" cx="151.5" cy="674.5" r="3.3"/>
			</g>
		</g>
	</g>
	<g>
		<g>
			<rect x="1153.4" y="722.6" class="st19" width="62.9" height="101.3"/>
			<path class="st3" d="M1216.3,826.4h-62.9c-1.4,0-2.5-1.1-2.5-2.5V722.6c0-1.4,1.1-2.5,2.5-2.5h62.9c1.4,0,2.5,1.1,2.5,2.5v101.3
				C1218.8,825.3,1217.7,826.4,1216.3,826.4z M1155.9,821.4h57.9v-96.3h-57.9V821.4z"/>
		</g>
		<g>
			<rect x="1162.3" y="714" class="st20" width="45.2" height="8.6"/>
			<path class="st3" d="M1207.5,725.1h-45.2c-1.4,0-2.5-1.1-2.5-2.5V714c0-1.4,1.1-2.5,2.5-2.5h45.2c1.4,0,2.5,1.1,2.5,2.5v8.6
				C1210,724,1208.9,725.1,1207.5,725.1z M1164.8,720.1h40.2v-3.6h-40.2V720.1z"/>
		</g>
		<path class="st19" d="M1153.4,694.9V714h62.9v-19.1C1195.4,680.3,1174.4,680.3,1153.4,694.9z"/>
		<path class="st3" d="M1216.3,716.5h-62.9c-1.4,0-2.5-1.1-2.5-2.5v-19.1c0-0.8,0.4-1.6,1.1-2c21.8-15.2,44-15.2,65.8,0
			c0.7,0.5,1.1,1.2,1.1,2V714C1218.8,715.4,1217.7,716.5,1216.3,716.5z M1155.9,711.5h57.9v-15.3c-19.5-13.1-38.4-13.1-57.9,0V711.5
			z"/>
		<g>
			<rect x="1166.2" y="732.1" class="st22" width="37.4" height="82.3"/>
			<path class="st3" d="M1203.6,816.9h-37.4c-1.4,0-2.5-1.1-2.5-2.5v-82.3c0-1.4,1.1-2.5,2.5-2.5h37.4c1.4,0,2.5,1.1,2.5,2.5v82.3
				C1206.1,815.8,1205,816.9,1203.6,816.9z M1168.7,811.9h32.4v-77.3h-32.4V811.9z"/>
			<path class="st3" d="M1203.6,790.6h-37.4c-1.1,0-2-0.9-2-2v-30.7c0-1.1,0.9-2,2-2h37.4c1.1,0,2,0.9,2,2v30.7
				C1205.6,789.7,1204.7,790.6,1203.6,790.6z M1168.2,786.6h33.4v-26.7h-33.4V786.6z"/>
			<path class="st3" d="M1191.7,816.4h-13.6c-1.1,0-2-0.9-2-2v-82.3c0-1.1,0.9-2,2-2h13.6c1.1,0,2,0.9,2,2v82.3
				C1193.7,815.5,1192.8,816.4,1191.7,816.4z M1180.1,812.4h9.6v-78.3h-9.6V812.4z"/>
		</g>
		<rect x="1165" y="698.2" class="st29" width="39.9" height="8.1"/>
	</g>
</g>
</svg>
